<svg width="194" height="40" viewBox="0 0 194 40" fill="none" xmlns="http://www.w3.org/2000/svg">
<path fill-rule="evenodd" clip-rule="evenodd" d="M0.588867 29.3654V13.6498H4.42564V29.3654H0.588867ZM55.6864 17.2438H63.9656V0H60.1289V13.407H54.3576L41.603 23.5517L28.8487 13.407H23.0772V0H19.2405V17.2438H27.5196L41.603 28.4455L55.6864 17.2438ZM60.1288 26.569H58.4872L41.6029 40L24.7187 26.569H23.0771V39.976H19.2404V22.7322H26.0483L41.6029 35.1055L57.1574 22.7322H63.9655V39.976H60.1288V26.569ZM73.2918 35.4722H69.4543V4.50305H73.2918V35.4722ZM82.617 29.3654H78.7803V13.6498H82.617V29.3654ZM9.91425 35.4722V4.50305H13.7509V35.4722H9.91425Z" fill="#94EB00"/>
<g filter="url(#filter0_i_1021_24782)">
<path d="M94.4302 23.6494V5.54728H98.5937L104.128 16.8482L109.61 5.54728H113.774V23.6494H110.283V11.4951L105.498 21.1151H102.731L97.9214 11.4951V23.6494H94.4302ZM122.637 23.9597C121.585 23.9597 120.68 23.7442 119.922 23.3132C119.18 22.865 118.611 22.2185 118.215 21.3737C117.818 20.5117 117.62 19.4514 117.62 18.1929V10.6159H121.111V17.8309C121.111 18.8825 121.327 19.6756 121.758 20.21C122.206 20.7445 122.887 21.0117 123.801 21.0117C124.387 21.0117 124.904 20.8824 125.352 20.6238C125.801 20.3479 126.154 19.96 126.413 19.4601C126.688 18.9429 126.826 18.3136 126.826 17.5723V10.6159H130.292V23.6494H127.24L126.956 21.5289C126.576 22.2702 126.016 22.865 125.275 23.3132C124.533 23.7442 123.654 23.9597 122.637 23.9597ZM137.719 23.6494L132.935 10.6159H136.607L139.84 20.3652L143.072 10.6159H146.718L141.96 23.6494H137.719ZM155.019 23.9597C153.709 23.9597 152.545 23.6839 151.528 23.1322C150.528 22.5633 149.744 21.7789 149.175 20.7789C148.623 19.7618 148.347 18.5894 148.347 17.2619C148.347 15.9 148.623 14.7018 149.175 13.6674C149.744 12.6157 150.528 11.7968 151.528 11.2107C152.528 10.6073 153.692 10.3056 155.019 10.3056C156.312 10.3056 157.441 10.59 158.407 11.1589C159.372 11.7279 160.122 12.4951 160.657 13.4605C161.191 14.4259 161.458 15.5207 161.458 16.7447C161.458 16.9171 161.458 17.1154 161.458 17.3395C161.458 17.5464 161.441 17.7619 161.407 17.986H150.83V15.8655H157.941C157.89 15.0207 157.588 14.357 157.036 13.8743C156.502 13.3915 155.83 13.1502 155.019 13.1502C154.433 13.1502 153.89 13.2881 153.39 13.5639C152.89 13.8225 152.494 14.2277 152.2 14.7794C151.925 15.3311 151.787 16.0293 151.787 16.874V17.624C151.787 18.3308 151.916 18.9515 152.175 19.4859C152.45 20.0031 152.83 20.4083 153.312 20.7014C153.795 20.9772 154.356 21.1151 154.993 21.1151C155.631 21.1151 156.157 20.9772 156.571 20.7014C157.002 20.4255 157.321 20.0721 157.528 19.6411H161.096C160.855 20.4514 160.45 21.1841 159.881 21.8392C159.312 22.4943 158.614 23.0115 157.786 23.3908C156.959 23.7701 156.036 23.9597 155.019 23.9597ZM164.835 23.6494V5.03007H168.326V23.6494H164.835ZM172.246 23.6494V5.03007H175.738V23.6494H172.246ZM185.813 23.9597C184.571 23.9597 183.451 23.6753 182.451 23.1063C181.468 22.5202 180.684 21.7185 180.098 20.7014C179.529 19.6669 179.244 18.486 179.244 17.1585C179.244 15.7965 179.529 14.607 180.098 13.5898C180.684 12.5554 181.477 11.7537 182.477 11.1848C183.477 10.5986 184.597 10.3056 185.839 10.3056C187.097 10.3056 188.218 10.5986 189.2 11.1848C190.2 11.7537 190.985 12.5554 191.554 13.5898C192.14 14.607 192.433 15.7879 192.433 17.1326C192.433 18.4774 192.14 19.6669 191.554 20.7014C190.985 21.7185 190.2 22.5202 189.2 23.1063C188.2 23.6753 187.071 23.9597 185.813 23.9597ZM185.813 20.9341C186.399 20.9341 186.916 20.7962 187.364 20.5203C187.83 20.2445 188.192 19.8221 188.45 19.2532C188.726 18.6843 188.864 17.9774 188.864 17.1326C188.864 16.2879 188.726 15.5897 188.45 15.038C188.192 14.469 187.83 14.0467 187.364 13.7708C186.916 13.4777 186.407 13.3312 185.839 13.3312C185.287 13.3312 184.778 13.4777 184.313 13.7708C183.847 14.0467 183.477 14.469 183.201 15.038C182.942 15.5897 182.813 16.2879 182.813 17.1326C182.813 17.9774 182.942 18.6843 183.201 19.2532C183.477 19.8221 183.839 20.2445 184.287 20.5203C184.752 20.7962 185.261 20.9341 185.813 20.9341Z" fill="white"/>
</g>
<path d="M94.6353 36.7881V31.5577H92.8834V30.8638H97.242V31.5577H95.4816V36.7881H94.6353ZM98.712 36.7881V32.5226H99.4737L99.5499 33.3266C99.6458 33.1347 99.7699 32.9739 99.9222 32.8442C100.075 32.7088 100.252 32.6044 100.455 32.531C100.664 32.4577 100.901 32.421 101.166 32.421V33.3181H100.862C100.687 33.3181 100.52 33.3407 100.362 33.3858C100.204 33.4253 100.063 33.4958 99.9392 33.5974C99.8207 33.699 99.7276 33.8372 99.6599 34.0121C99.5922 34.187 99.5583 34.4042 99.5583 34.6638V36.7881H98.712ZM104.467 36.8896C104.117 36.8896 103.826 36.8304 103.595 36.7119C103.364 36.5934 103.192 36.4354 103.079 36.238C102.966 36.0348 102.91 35.8176 102.91 35.5863C102.91 35.3042 102.983 35.0644 103.13 34.8669C103.276 34.6638 103.485 34.5086 103.756 34.4014C104.027 34.2942 104.351 34.2406 104.729 34.2406H105.838C105.838 33.9924 105.801 33.7864 105.728 33.6228C105.654 33.4592 105.544 33.3379 105.398 33.2589C105.257 33.1742 105.076 33.1319 104.856 33.1319C104.602 33.1319 104.385 33.194 104.204 33.3181C104.024 33.4366 103.911 33.6143 103.866 33.8513H103.02C103.053 33.5523 103.155 33.2984 103.324 33.0896C103.499 32.8752 103.722 32.7116 103.993 32.5987C104.264 32.4802 104.551 32.421 104.856 32.421C105.257 32.421 105.592 32.4915 105.863 32.6326C106.134 32.7736 106.337 32.9739 106.473 33.2335C106.614 33.4874 106.684 33.7921 106.684 34.1475V36.7881H105.948L105.88 36.0687C105.818 36.1815 105.745 36.2887 105.66 36.3903C105.576 36.4919 105.474 36.5793 105.355 36.6527C105.243 36.726 105.11 36.7824 104.958 36.8219C104.811 36.8671 104.647 36.8896 104.467 36.8896ZM104.628 36.2041C104.808 36.2041 104.972 36.1674 105.118 36.0941C105.265 36.0207 105.389 35.922 105.491 35.7979C105.598 35.6681 105.677 35.5242 105.728 35.3662C105.784 35.2026 105.815 35.0362 105.821 34.8669V34.8415H104.814C104.571 34.8415 104.374 34.8726 104.221 34.9346C104.075 34.991 103.967 35.07 103.9 35.1716C103.832 35.2731 103.798 35.3916 103.798 35.527C103.798 35.6681 103.829 35.7894 103.891 35.891C103.959 35.9869 104.055 36.0631 104.179 36.1195C104.303 36.1759 104.453 36.2041 104.628 36.2041ZM108.934 36.7881V32.5226H109.78V36.7881H108.934ZM109.365 31.7185C109.202 31.7185 109.066 31.6678 108.959 31.5662C108.857 31.4646 108.807 31.3349 108.807 31.1769C108.807 31.0246 108.857 30.9004 108.959 30.8045C109.066 30.7029 109.202 30.6522 109.365 30.6522C109.523 30.6522 109.656 30.7029 109.763 30.8045C109.87 30.9004 109.924 31.0246 109.924 31.1769C109.924 31.3349 109.87 31.4646 109.763 31.5662C109.656 31.6678 109.523 31.7185 109.365 31.7185ZM112.1 36.7881V32.5226H112.862L112.912 33.2504C113.048 32.9965 113.24 32.7962 113.488 32.6495C113.736 32.4972 114.021 32.421 114.343 32.421C114.681 32.421 114.972 32.4887 115.215 32.6241C115.457 32.7595 115.646 32.9655 115.782 33.2419C115.917 33.5128 115.985 33.8541 115.985 34.266V36.7881H115.138V34.3506C115.138 33.9557 115.051 33.6567 114.876 33.4535C114.701 33.2504 114.447 33.1489 114.114 33.1489C113.894 33.1489 113.697 33.2025 113.522 33.3097C113.347 33.4112 113.206 33.5636 113.099 33.7667C112.997 33.9698 112.946 34.2181 112.946 34.5114V36.7881H112.1ZM118.516 36.8304C118.352 36.8304 118.217 36.7796 118.109 36.6781C118.008 36.5709 117.957 36.4439 117.957 36.2972C117.957 36.1449 118.008 36.0179 118.109 35.9164C118.217 35.8092 118.352 35.7556 118.516 35.7556C118.679 35.7556 118.812 35.8092 118.913 35.9164C119.015 36.0179 119.066 36.1449 119.066 36.2972C119.066 36.4439 119.015 36.5709 118.913 36.6781C118.812 36.7796 118.679 36.8304 118.516 36.8304ZM125.802 36.7881V31.5577H124.05V30.8638H128.409V31.5577H126.649V36.7881H125.802ZM129.879 36.7881V32.5226H130.641L130.717 33.3266C130.813 33.1347 130.937 32.9739 131.089 32.8442C131.242 32.7088 131.419 32.6044 131.623 32.531C131.831 32.4577 132.068 32.421 132.333 32.421V33.3181H132.029C131.854 33.3181 131.687 33.3407 131.529 33.3858C131.371 33.4253 131.23 33.4958 131.106 33.5974C130.988 33.699 130.895 33.8372 130.827 34.0121C130.759 34.187 130.725 34.4042 130.725 34.6638V36.7881H129.879ZM135.634 36.8896C135.284 36.8896 134.993 36.8304 134.762 36.7119C134.531 36.5934 134.359 36.4354 134.246 36.238C134.133 36.0348 134.077 35.8176 134.077 35.5863C134.077 35.3042 134.15 35.0644 134.297 34.8669C134.443 34.6638 134.652 34.5086 134.923 34.4014C135.194 34.2942 135.518 34.2406 135.896 34.2406H137.005C137.005 33.9924 136.968 33.7864 136.895 33.6228C136.822 33.4592 136.712 33.3379 136.565 33.2589C136.424 33.1742 136.243 33.1319 136.023 33.1319C135.769 33.1319 135.552 33.194 135.372 33.3181C135.191 33.4366 135.078 33.6143 135.033 33.8513H134.187C134.221 33.5523 134.322 33.2984 134.491 33.0896C134.666 32.8752 134.889 32.7116 135.16 32.5987C135.431 32.4802 135.719 32.421 136.023 32.421C136.424 32.421 136.76 32.4915 137.03 32.6326C137.301 32.7736 137.504 32.9739 137.64 33.2335C137.781 33.4874 137.851 33.7921 137.851 34.1475V36.7881H137.115L137.047 36.0687C136.985 36.1815 136.912 36.2887 136.827 36.3903C136.743 36.4919 136.641 36.5793 136.523 36.6527C136.41 36.726 136.277 36.7824 136.125 36.8219C135.978 36.8671 135.814 36.8896 135.634 36.8896ZM135.795 36.2041C135.975 36.2041 136.139 36.1674 136.286 36.0941C136.432 36.0207 136.556 35.922 136.658 35.7979C136.765 35.6681 136.844 35.5242 136.895 35.3662C136.951 35.2026 136.982 35.0362 136.988 34.8669V34.8415H135.981C135.738 34.8415 135.541 34.8726 135.388 34.9346C135.242 34.991 135.135 35.07 135.067 35.1716C134.999 35.2731 134.965 35.3916 134.965 35.527C134.965 35.6681 134.996 35.7894 135.058 35.891C135.126 35.9869 135.222 36.0631 135.346 36.1195C135.47 36.1759 135.62 36.2041 135.795 36.2041ZM142.013 36.8896C141.601 36.8896 141.235 36.7965 140.913 36.6104C140.592 36.4185 140.338 36.1562 140.151 35.8233C139.971 35.4904 139.881 35.1039 139.881 34.6638C139.881 34.2181 139.971 33.8287 140.151 33.4958C140.338 33.1573 140.592 32.895 140.913 32.7088C141.235 32.5169 141.601 32.421 142.013 32.421C142.532 32.421 142.967 32.5564 143.317 32.8272C143.667 33.0981 143.889 33.4648 143.985 33.9275H143.105C143.049 33.6792 142.919 33.4874 142.716 33.352C142.518 33.2166 142.281 33.1489 142.005 33.1489C141.779 33.1489 141.57 33.2081 141.379 33.3266C141.187 33.4394 141.032 33.6087 140.913 33.8344C140.8 34.0544 140.744 34.3281 140.744 34.6553C140.744 34.8979 140.778 35.1152 140.845 35.307C140.913 35.4932 141.003 35.6512 141.116 35.7809C141.235 35.9107 141.37 36.0095 141.522 36.0772C141.675 36.1392 141.836 36.1703 142.005 36.1703C142.191 36.1703 142.358 36.1421 142.504 36.0856C142.657 36.0236 142.784 35.9333 142.885 35.8148C142.992 35.6963 143.066 35.5553 143.105 35.3916H143.985C143.889 35.843 143.667 36.2069 143.317 36.4834C142.967 36.7542 142.532 36.8896 142.013 36.8896ZM148.768 36.7881L146.805 34.4522L148.582 32.5226H149.606L147.49 34.7823V34.1475L149.835 36.7881H148.768ZM146.085 36.7881V30.6945H146.932V36.7881H146.085ZM151.997 36.8304C151.833 36.8304 151.698 36.7796 151.591 36.6781C151.489 36.5709 151.438 36.4439 151.438 36.2972C151.438 36.1449 151.489 36.0179 151.591 35.9164C151.698 35.8092 151.833 35.7556 151.997 35.7556C152.161 35.7556 152.293 35.8092 152.395 35.9164C152.496 36.0179 152.547 36.1449 152.547 36.2972C152.547 36.4439 152.496 36.5709 152.395 36.6781C152.293 36.7796 152.161 36.8304 151.997 36.8304ZM157.904 36.7881V30.8638H158.75V36.7881H157.904ZM161.054 36.7881V32.5226H161.816L161.867 33.2504C162.002 32.9965 162.194 32.7962 162.442 32.6495C162.691 32.4972 162.976 32.421 163.297 32.421C163.636 32.421 163.926 32.4887 164.169 32.6241C164.412 32.7595 164.601 32.9655 164.736 33.2419C164.871 33.5128 164.939 33.8541 164.939 34.266V36.7881H164.093V34.3506C164.093 33.9557 164.005 33.6567 163.83 33.4535C163.655 33.2504 163.402 33.1489 163.069 33.1489C162.849 33.1489 162.651 33.2025 162.476 33.3097C162.301 33.4112 162.16 33.5636 162.053 33.7667C161.952 33.9698 161.901 34.2181 161.901 34.5114V36.7881H161.054ZM168.782 36.8896C168.421 36.8896 168.105 36.8304 167.834 36.7119C167.563 36.5934 167.349 36.427 167.191 36.2126C167.033 35.9982 166.937 35.7471 166.903 35.4593H167.766C167.794 35.5948 167.848 35.7189 167.927 35.8317C168.012 35.9446 168.125 36.0348 168.266 36.1026C168.412 36.1703 168.584 36.2041 168.782 36.2041C168.968 36.2041 169.12 36.1787 169.239 36.1279C169.363 36.0715 169.453 35.9982 169.51 35.9079C169.566 35.812 169.594 35.7104 169.594 35.6032C169.594 35.4452 169.555 35.3267 169.476 35.2478C169.402 35.1631 169.29 35.0982 169.137 35.0531C168.991 35.0023 168.813 34.9572 168.604 34.9177C168.407 34.8838 168.215 34.8387 168.029 34.7823C167.848 34.7202 167.684 34.644 167.538 34.5538C167.397 34.4635 167.284 34.3506 167.199 34.2152C167.115 34.0742 167.072 33.9021 167.072 33.699C167.072 33.4564 167.137 33.2391 167.267 33.0473C167.397 32.8498 167.58 32.6975 167.817 32.5903C168.06 32.4774 168.345 32.421 168.672 32.421C169.146 32.421 169.527 32.5338 169.814 32.7595C170.102 32.9852 170.271 33.304 170.322 33.7159H169.501C169.479 33.5241 169.394 33.3774 169.247 33.2758C169.101 33.1686 168.906 33.115 168.663 33.115C168.421 33.115 168.235 33.163 168.105 33.2589C167.975 33.3548 167.91 33.4817 167.91 33.6397C167.91 33.7413 167.947 33.8316 168.02 33.9106C168.093 33.9895 168.201 34.0572 168.342 34.1137C168.488 34.1645 168.666 34.2124 168.875 34.2575C169.174 34.314 169.442 34.3845 169.679 34.4691C169.916 34.5538 170.105 34.6779 170.246 34.8415C170.387 35.0051 170.458 35.2393 170.458 35.544C170.463 35.8092 170.396 36.0433 170.254 36.2464C170.119 36.4496 169.924 36.6075 169.671 36.7204C169.422 36.8332 169.126 36.8896 168.782 36.8896ZM172.564 38.65V32.5226H173.326L173.41 33.1827C173.501 33.0529 173.613 32.9316 173.749 32.8188C173.884 32.7003 174.045 32.6044 174.231 32.531C174.423 32.4577 174.646 32.421 174.9 32.421C175.306 32.421 175.662 32.5197 175.966 32.7172C176.277 32.9147 176.516 33.1827 176.686 33.5212C176.86 33.8541 176.948 34.235 176.948 34.6638C176.948 35.0926 176.86 35.4763 176.686 35.8148C176.511 36.1477 176.268 36.4101 175.958 36.6019C175.653 36.7937 175.298 36.8896 174.891 36.8896C174.558 36.8896 174.265 36.8248 174.011 36.695C173.757 36.5596 173.557 36.3734 173.41 36.1364V38.65H172.564ZM174.756 36.1533C175.015 36.1533 175.244 36.0913 175.441 35.9671C175.645 35.843 175.803 35.6681 175.915 35.4424C176.034 35.2167 176.093 34.9544 176.093 34.6553C176.093 34.3563 176.034 34.0967 175.915 33.8767C175.803 33.651 175.645 33.4761 175.441 33.352C175.244 33.2222 175.015 33.1573 174.756 33.1573C174.491 33.1573 174.257 33.2222 174.053 33.352C173.856 33.4761 173.701 33.651 173.588 33.8767C173.475 34.0967 173.419 34.3563 173.419 34.6553C173.419 34.9544 173.475 35.2167 173.588 35.4424C173.701 35.6681 173.856 35.843 174.053 35.9671C174.257 36.0913 174.491 36.1533 174.756 36.1533ZM179.105 36.7881V32.5226H179.952V36.7881H179.105ZM179.537 31.7185C179.373 31.7185 179.238 31.6678 179.131 31.5662C179.029 31.4646 178.978 31.3349 178.978 31.1769C178.978 31.0246 179.029 30.9004 179.131 30.8045C179.238 30.7029 179.373 30.6522 179.537 30.6522C179.695 30.6522 179.827 30.7029 179.935 30.8045C180.042 30.9004 180.095 31.0246 180.095 31.1769C180.095 31.3349 180.042 31.4646 179.935 31.5662C179.827 31.6678 179.695 31.7185 179.537 31.7185ZM182.272 36.7881V32.5226H183.033L183.11 33.3266C183.205 33.1347 183.33 32.9739 183.482 32.8442C183.634 32.7088 183.812 32.6044 184.015 32.531C184.224 32.4577 184.461 32.421 184.726 32.421V33.3181H184.421C184.246 33.3181 184.08 33.3407 183.922 33.3858C183.764 33.4253 183.623 33.4958 183.499 33.5974C183.38 33.699 183.287 33.8372 183.22 34.0121C183.152 34.187 183.118 34.4042 183.118 34.6638V36.7881H182.272ZM188.419 36.8896C188.013 36.8896 187.651 36.7965 187.335 36.6104C187.02 36.4242 186.771 36.1646 186.591 35.8317C186.416 35.4988 186.328 35.1123 186.328 34.6723C186.328 34.2209 186.416 33.8287 186.591 33.4958C186.771 33.1573 187.02 32.895 187.335 32.7088C187.651 32.5169 188.018 32.421 188.436 32.421C188.853 32.421 189.212 32.5141 189.511 32.7003C189.81 32.8865 190.041 33.1347 190.205 33.4451C190.368 33.7497 190.45 34.0883 190.45 34.4607C190.45 34.5171 190.447 34.5792 190.442 34.6469C190.442 34.7089 190.439 34.7795 190.433 34.8584H186.946V34.2575H189.604C189.587 33.9021 189.468 33.6256 189.248 33.4281C189.028 33.225 188.755 33.1235 188.427 33.1235C188.196 33.1235 187.984 33.1771 187.793 33.2843C187.601 33.3858 187.446 33.5382 187.327 33.7413C187.214 33.9388 187.158 34.1898 187.158 34.4945V34.7315C187.158 35.0475 187.214 35.3155 187.327 35.5355C187.446 35.7499 187.601 35.9135 187.793 36.0264C187.984 36.1336 188.193 36.1872 188.419 36.1872C188.69 36.1872 188.913 36.1279 189.087 36.0095C189.262 35.891 189.392 35.7302 189.477 35.527H190.323C190.25 35.7866 190.126 36.0207 189.951 36.2295C189.776 36.4326 189.559 36.5934 189.299 36.7119C189.045 36.8304 188.752 36.8896 188.419 36.8896ZM192.839 36.8304C192.675 36.8304 192.54 36.7796 192.432 36.6781C192.331 36.5709 192.28 36.4439 192.28 36.2972C192.28 36.1449 192.331 36.0179 192.432 35.9164C192.54 35.8092 192.675 35.7556 192.839 35.7556C193.002 35.7556 193.135 35.8092 193.236 35.9164C193.338 36.0179 193.389 36.1449 193.389 36.2972C193.389 36.4439 193.338 36.5709 193.236 36.6781C193.135 36.7796 193.002 36.8304 192.839 36.8304Z" fill="white"/>
<defs>
<filter id="filter0_i_1021_24782" x="94.4302" y="5.03027" width="98.0029" height="19.6612" filterUnits="userSpaceOnUse" color-interpolation-filters="sRGB">
<feFlood flood-opacity="0" result="BackgroundImageFix"/>
<feBlend mode="normal" in="SourceGraphic" in2="BackgroundImageFix" result="shape"/>
<feColorMatrix in="SourceAlpha" type="matrix" values="0 0 0 0 0 0 0 0 0 0 0 0 0 0 0 0 0 0 127 0" result="hardAlpha"/>
<feOffset dy="0.73149"/>
<feGaussianBlur stdDeviation="0.365745"/>
<feComposite in2="hardAlpha" operator="arithmetic" k2="-1" k3="1"/>
<feColorMatrix type="matrix" values="0 0 0 0 0 0 0 0 0 0 0 0 0 0 0 0 0 0 0.25 0"/>
<feBlend mode="normal" in2="shape" result="effect1_innerShadow_1021_24782"/>
</filter>
</defs>
</svg>
