<svg width="202" height="153" viewBox="0 0 202 153" fill="none" xmlns="http://www.w3.org/2000/svg">
<path fill-rule="evenodd" clip-rule="evenodd" d="M33.5356 48.2215V22.4146H39.8361V48.2215H33.5356ZM124.012 28.3164H137.608V0H131.308V22.016H121.83L100.886 38.6748L79.9416 22.016H70.4641V0H64.1638V28.3164H77.7591L100.886 46.7109L124.012 28.3164ZM131.307 43.6294H128.612L100.886 65.6848L73.1597 43.6294H70.464V65.6454H64.1637V37.329H75.3431L100.886 57.6474L126.428 37.329H137.608V65.6454H131.307V43.6294ZM152.923 58.2497H146.621V7.39456H152.923V58.2497ZM168.236 48.2215H161.935V22.4146H168.236V48.2215ZM48.849 58.2497V7.39456H55.1494V58.2497H48.849Z" fill="#94EB00"/>
<g filter="url(#filter0_i_1021_24704)">
<path d="M3.67219 119.046V82.9556H11.973L23.0063 105.486L33.9365 82.9556H42.2373V119.046H35.277V94.8138L25.7389 113.993H20.2222L10.6325 94.8138V119.046H3.67219ZM59.9083 119.665C57.8116 119.665 56.0071 119.235 54.4947 118.376C53.0167 117.482 51.8825 116.193 51.0919 114.509C50.3014 112.79 49.9061 110.676 49.9061 108.167V93.0609H56.8664V107.445C56.8664 109.542 57.296 111.123 58.1553 112.189C59.049 113.254 60.4067 113.787 62.2284 113.787C63.397 113.787 64.4282 113.529 65.3218 113.014C66.2155 112.464 66.9201 111.69 67.4357 110.694C67.9856 109.662 68.2606 108.408 68.2606 106.93V93.0609H75.1693V119.046H69.0855L68.5184 114.818C67.7622 116.296 66.6451 117.482 65.1671 118.376C63.6892 119.235 61.9362 119.665 59.9083 119.665ZM89.9772 119.046L80.4391 93.0609H87.7603L94.205 112.498L100.65 93.0609H107.919L98.4327 119.046H89.9772ZM124.469 119.665C121.857 119.665 119.537 119.115 117.509 118.015C115.515 116.88 113.951 115.317 112.817 113.323C111.717 111.295 111.167 108.958 111.167 106.311C111.167 103.596 111.717 101.207 112.817 99.1447C113.951 97.048 115.515 95.4153 117.509 94.2467C119.502 93.0437 121.822 92.4422 124.469 92.4422C127.047 92.4422 129.298 93.0093 131.223 94.1436C133.148 95.2778 134.643 96.8074 135.708 98.7322C136.774 100.657 137.307 102.84 137.307 105.28C137.307 105.624 137.307 106.019 137.307 106.466C137.307 106.878 137.272 107.308 137.204 107.755H116.117V103.527H130.295C130.192 101.843 129.59 100.52 128.49 99.5571C127.425 98.5947 126.084 98.1135 124.469 98.1135C123.3 98.1135 122.218 98.3885 121.221 98.9384C120.224 99.454 119.433 100.262 118.849 101.362C118.299 102.462 118.024 103.854 118.024 105.538V107.033C118.024 108.442 118.282 109.68 118.798 110.745C119.348 111.776 120.104 112.584 121.066 113.168C122.029 113.718 123.146 113.993 124.417 113.993C125.689 113.993 126.737 113.718 127.562 113.168C128.422 112.618 129.058 111.914 129.47 111.054H136.585C136.104 112.67 135.296 114.131 134.162 115.437C133.027 116.743 131.635 117.774 129.986 118.53C128.336 119.287 126.497 119.665 124.469 119.665ZM144.038 119.046V81.9244H150.999V119.046H144.038ZM158.815 119.046V81.9244H165.775V119.046H158.815ZM185.862 119.665C183.387 119.665 181.153 119.097 179.159 117.963C177.2 116.795 175.636 115.196 174.468 113.168C173.333 111.106 172.766 108.752 172.766 106.105C172.766 103.39 173.333 101.018 174.468 98.99C175.636 96.9277 177.217 95.3294 179.211 94.1951C181.205 93.0265 183.439 92.4422 185.914 92.4422C188.423 92.4422 190.657 93.0265 192.616 94.1951C194.61 95.3294 196.173 96.9277 197.308 98.99C198.476 101.018 199.061 103.372 199.061 106.053C199.061 108.734 198.476 111.106 197.308 113.168C196.173 115.196 194.61 116.795 192.616 117.963C190.622 119.097 188.371 119.665 185.862 119.665ZM185.862 113.632C187.031 113.632 188.062 113.357 188.955 112.807C189.883 112.257 190.605 111.415 191.121 110.281C191.671 109.147 191.946 107.738 191.946 106.053C191.946 104.369 191.671 102.977 191.121 101.877C190.605 100.743 189.883 99.9008 188.955 99.3509C188.062 98.7666 187.048 98.4744 185.914 98.4744C184.814 98.4744 183.8 98.7666 182.872 99.3509C181.944 99.9008 181.205 100.743 180.655 101.877C180.139 102.977 179.881 104.369 179.881 106.053C179.881 107.738 180.139 109.147 180.655 110.281C181.205 111.415 181.926 112.257 182.82 112.807C183.748 113.357 184.762 113.632 185.862 113.632Z" fill="white"/>
</g>
<path d="M4.5673 147.324V136.99H1.10598V135.619H9.71749V136.99H6.23944V147.324H4.5673ZM12.6586 147.324V138.897H14.1635L14.314 140.485C14.5035 140.106 14.7488 139.788 15.0497 139.532C15.3507 139.265 15.7019 139.058 16.1032 138.913C16.5157 138.768 16.9839 138.696 17.5078 138.696V140.468H16.9058C16.5602 140.468 16.2314 140.513 15.9193 140.602C15.6071 140.68 15.3284 140.82 15.0832 141.02C14.8491 141.221 14.6652 141.494 14.5314 141.84C14.3976 142.185 14.3307 142.614 14.3307 143.127V147.324H12.6586ZM24.0654 147.525C23.3743 147.525 22.8002 147.408 22.3431 147.174C21.886 146.94 21.546 146.627 21.3231 146.237C21.1001 145.836 20.9887 145.407 20.9887 144.95C20.9887 144.392 21.1336 143.919 21.4234 143.528C21.7133 143.127 22.1257 142.821 22.6608 142.609C23.1959 142.397 23.8369 142.291 24.5838 142.291H26.7743C26.7743 141.801 26.7018 141.394 26.5569 141.07C26.412 140.747 26.1946 140.507 25.9048 140.351C25.6261 140.184 25.2693 140.101 24.8346 140.101C24.3329 140.101 23.9038 140.223 23.547 140.468C23.1903 140.703 22.9674 141.054 22.8782 141.522H21.206C21.2729 140.931 21.4736 140.429 21.808 140.017C22.1536 139.593 22.5939 139.27 23.129 139.047C23.6641 138.813 24.2326 138.696 24.8346 138.696C25.6261 138.696 26.2893 138.835 26.8244 139.114C27.3595 139.393 27.7608 139.788 28.0284 140.301C28.3071 140.803 28.4464 141.405 28.4464 142.107V147.324H26.9916L26.8579 145.903C26.7353 146.126 26.5903 146.338 26.4231 146.538C26.2559 146.739 26.0552 146.912 25.8211 147.057C25.5982 147.202 25.3362 147.313 25.0352 147.391C24.7454 147.48 24.4221 147.525 24.0654 147.525ZM24.3831 146.17C24.7398 146.17 25.0631 146.098 25.3529 145.953C25.6428 145.808 25.888 145.613 26.0887 145.368C26.3005 145.111 26.4566 144.827 26.5569 144.515C26.6684 144.192 26.7297 143.863 26.7408 143.528V143.478H24.751C24.2716 143.478 23.8815 143.54 23.5805 143.662C23.2906 143.774 23.0788 143.93 22.9451 144.13C22.8113 144.331 22.7444 144.565 22.7444 144.833C22.7444 145.111 22.8057 145.351 22.9283 145.552C23.0621 145.741 23.2516 145.892 23.4969 146.003C23.7421 146.115 24.0375 146.17 24.3831 146.17ZM32.9273 147.324V138.897H34.5994V147.324H32.9273ZM33.7801 137.308C33.4568 137.308 33.1893 137.208 32.9775 137.007C32.7768 136.806 32.6765 136.55 32.6765 136.238C32.6765 135.937 32.7768 135.692 32.9775 135.502C33.1893 135.302 33.4568 135.201 33.7801 135.201C34.0922 135.201 34.3542 135.302 34.566 135.502C34.7778 135.692 34.8837 135.937 34.8837 136.238C34.8837 136.55 34.7778 136.806 34.566 137.007C34.3542 137.208 34.0922 137.308 33.7801 137.308ZM39.2201 147.324V138.897H40.725L40.8254 140.335C41.0929 139.833 41.4719 139.437 41.9624 139.147C42.4529 138.846 43.0159 138.696 43.6513 138.696C44.3201 138.696 44.8942 138.83 45.3736 139.097C45.8529 139.365 46.2264 139.772 46.4939 140.318C46.7615 140.853 46.8952 141.527 46.8952 142.341V147.324H45.2231V142.508C45.2231 141.728 45.0503 141.137 44.7047 140.736C44.3592 140.335 43.8575 140.134 43.1998 140.134C42.7651 140.134 42.3749 140.24 42.0293 140.452C41.6837 140.652 41.405 140.953 41.1932 141.355C40.9926 141.756 40.8923 142.246 40.8923 142.826V147.324H39.2201ZM51.9325 147.408C51.6092 147.408 51.3417 147.307 51.1299 147.107C50.9292 146.895 50.8289 146.644 50.8289 146.354C50.8289 146.053 50.9292 145.803 51.1299 145.602C51.3417 145.39 51.6092 145.284 51.9325 145.284C52.2558 145.284 52.5178 145.39 52.7184 145.602C52.9191 145.803 53.0194 146.053 53.0194 146.354C53.0194 146.644 52.9191 146.895 52.7184 147.107C52.5178 147.307 52.2558 147.408 51.9325 147.408ZM66.4027 147.324V136.99H62.9414V135.619H71.5529V136.99H68.0748V147.324H66.4027ZM74.494 147.324V138.897H75.9989L76.1494 140.485C76.3389 140.106 76.5842 139.788 76.8851 139.532C77.1861 139.265 77.5373 139.058 77.9386 138.913C78.351 138.768 78.8192 138.696 79.3432 138.696V140.468H78.7412C78.3956 140.468 78.0668 140.513 77.7547 140.602C77.4425 140.68 77.1638 140.82 76.9186 141.02C76.6845 141.221 76.5005 141.494 76.3668 141.84C76.233 142.185 76.1661 142.614 76.1661 143.127V147.324H74.494ZM85.9008 147.525C85.2097 147.525 84.6356 147.408 84.1785 147.174C83.7214 146.94 83.3814 146.627 83.1585 146.237C82.9355 145.836 82.8241 145.407 82.8241 144.95C82.8241 144.392 82.969 143.919 83.2588 143.528C83.5487 143.127 83.9611 142.821 84.4962 142.609C85.0313 142.397 85.6723 142.291 86.4192 142.291H88.6097C88.6097 141.801 88.5372 141.394 88.3923 141.07C88.2474 140.747 88.03 140.507 87.7402 140.351C87.4615 140.184 87.1047 140.101 86.67 140.101C86.1683 140.101 85.7392 140.223 85.3824 140.468C85.0257 140.703 84.8028 141.054 84.7136 141.522H83.0414C83.1083 140.931 83.309 140.429 83.6434 140.017C83.989 139.593 84.4293 139.27 84.9644 139.047C85.4995 138.813 86.068 138.696 86.67 138.696C87.4615 138.696 88.1247 138.835 88.6598 139.114C89.1949 139.393 89.5962 139.788 89.8638 140.301C90.1425 140.803 90.2818 141.405 90.2818 142.107V147.324H88.827L88.6933 145.903C88.5707 146.126 88.4257 146.338 88.2585 146.538C88.0913 146.739 87.8906 146.912 87.6565 147.057C87.4336 147.202 87.1716 147.313 86.8706 147.391C86.5808 147.48 86.2575 147.525 85.9008 147.525ZM86.2185 146.17C86.5752 146.17 86.8985 146.098 87.1883 145.953C87.4782 145.808 87.7234 145.613 87.9241 145.368C88.1359 145.111 88.292 144.827 88.3923 144.515C88.5038 144.192 88.5651 143.863 88.5762 143.528V143.478H86.5864C86.107 143.478 85.7169 143.54 85.4159 143.662C85.126 143.774 84.9142 143.93 84.7805 144.13C84.6467 144.331 84.5798 144.565 84.5798 144.833C84.5798 145.111 84.6411 145.351 84.7637 145.552C84.8975 145.741 85.087 145.892 85.3323 146.003C85.5775 146.115 85.8729 146.17 86.2185 146.17ZM98.5417 147.525C97.728 147.525 97.0034 147.341 96.368 146.973C95.7325 146.594 95.2309 146.076 94.863 145.418C94.5063 144.76 94.3279 143.997 94.3279 143.127C94.3279 142.246 94.5063 141.477 94.863 140.82C95.2309 140.151 95.7325 139.632 96.368 139.265C97.0034 138.885 97.728 138.696 98.5417 138.696C99.5673 138.696 100.426 138.964 101.117 139.499C101.808 140.034 102.248 140.758 102.438 141.672H100.699C100.587 141.182 100.331 140.803 99.9296 140.535C99.5394 140.268 99.0712 140.134 98.525 140.134C98.0791 140.134 97.6667 140.251 97.2876 140.485C96.9086 140.708 96.6021 141.043 96.368 141.488C96.145 141.923 96.0335 142.464 96.0335 143.11C96.0335 143.59 96.1004 144.019 96.2342 144.398C96.368 144.766 96.5463 145.078 96.7693 145.334C97.0034 145.591 97.2709 145.786 97.5719 145.92C97.8729 146.042 98.1906 146.104 98.525 146.104C98.8929 146.104 99.2217 146.048 99.5116 145.936C99.8126 145.814 100.063 145.635 100.264 145.401C100.476 145.167 100.621 144.888 100.699 144.565H102.438C102.248 145.457 101.808 146.176 101.117 146.722C100.426 147.257 99.5673 147.525 98.5417 147.525ZM111.925 147.324L108.045 142.709L111.557 138.897H113.58L109.4 143.361V142.107L114.031 147.324H111.925ZM106.624 147.324V135.285H108.296V147.324H106.624ZM118.34 147.408C118.017 147.408 117.749 147.307 117.538 147.107C117.337 146.895 117.237 146.644 117.237 146.354C117.237 146.053 117.337 145.803 117.538 145.602C117.749 145.39 118.017 145.284 118.34 145.284C118.663 145.284 118.925 145.39 119.126 145.602C119.327 145.803 119.427 146.053 119.427 146.354C119.427 146.644 119.327 146.895 119.126 147.107C118.925 147.307 118.663 147.408 118.34 147.408ZM130.085 147.324V135.619H131.757V147.324H130.085ZM136.346 147.324V138.897H137.851L137.951 140.335C138.218 139.833 138.598 139.437 139.088 139.147C139.579 138.846 140.141 138.696 140.777 138.696C141.446 138.696 142.02 138.83 142.499 139.097C142.979 139.365 143.352 139.772 143.62 140.318C143.887 140.853 144.021 141.527 144.021 142.341V147.324H142.349V142.508C142.349 141.728 142.176 141.137 141.83 140.736C141.485 140.335 140.983 140.134 140.325 140.134C139.891 140.134 139.5 140.24 139.155 140.452C138.809 140.652 138.531 140.953 138.319 141.355C138.118 141.756 138.018 142.246 138.018 142.826V147.324H136.346ZM151.65 147.525C150.936 147.525 150.312 147.408 149.777 147.174C149.242 146.94 148.818 146.611 148.506 146.187C148.194 145.764 148.005 145.267 147.938 144.699H149.643C149.699 144.967 149.805 145.212 149.961 145.435C150.128 145.658 150.351 145.836 150.63 145.97C150.92 146.104 151.26 146.17 151.65 146.17C152.018 146.17 152.319 146.12 152.553 146.02C152.798 145.908 152.976 145.764 153.088 145.585C153.199 145.396 153.255 145.195 153.255 144.983C153.255 144.671 153.177 144.437 153.021 144.281C152.876 144.114 152.653 143.986 152.352 143.896C152.062 143.796 151.711 143.707 151.299 143.629C150.909 143.562 150.53 143.473 150.162 143.361C149.805 143.239 149.482 143.088 149.192 142.91C148.913 142.731 148.69 142.508 148.523 142.241C148.356 141.962 148.272 141.622 148.272 141.221C148.272 140.742 148.4 140.312 148.657 139.933C148.913 139.543 149.275 139.242 149.744 139.03C150.223 138.807 150.786 138.696 151.433 138.696C152.369 138.696 153.121 138.919 153.69 139.365C154.258 139.811 154.593 140.441 154.693 141.254H153.071C153.027 140.875 152.859 140.585 152.57 140.385C152.28 140.173 151.895 140.067 151.416 140.067C150.936 140.067 150.569 140.162 150.312 140.351C150.056 140.541 149.928 140.792 149.928 141.104C149.928 141.305 150 141.483 150.145 141.639C150.29 141.795 150.502 141.929 150.78 142.04C151.07 142.141 151.421 142.235 151.834 142.325C152.425 142.436 152.954 142.575 153.422 142.743C153.891 142.91 154.264 143.155 154.543 143.478C154.821 143.802 154.961 144.264 154.961 144.866C154.972 145.39 154.838 145.853 154.559 146.254C154.292 146.655 153.907 146.967 153.406 147.19C152.915 147.413 152.33 147.525 151.65 147.525ZM159.159 151.003V138.897H160.664L160.831 140.201C161.01 139.945 161.233 139.705 161.5 139.482C161.768 139.248 162.085 139.058 162.453 138.913C162.832 138.768 163.273 138.696 163.774 138.696C164.577 138.696 165.279 138.891 165.881 139.281C166.494 139.671 166.968 140.201 167.302 140.87C167.648 141.527 167.821 142.28 167.821 143.127C167.821 143.974 167.648 144.732 167.302 145.401C166.957 146.059 166.477 146.577 165.864 146.956C165.262 147.335 164.56 147.525 163.757 147.525C163.1 147.525 162.52 147.397 162.018 147.14C161.517 146.873 161.121 146.505 160.831 146.037V151.003H159.159ZM163.49 146.07C164.003 146.07 164.454 145.947 164.844 145.702C165.246 145.457 165.558 145.111 165.781 144.666C166.015 144.22 166.132 143.701 166.132 143.11C166.132 142.52 166.015 142.007 165.781 141.572C165.558 141.126 165.246 140.781 164.844 140.535C164.454 140.279 164.003 140.151 163.49 140.151C162.966 140.151 162.503 140.279 162.102 140.535C161.712 140.781 161.405 141.126 161.182 141.572C160.959 142.007 160.848 142.52 160.848 143.11C160.848 143.701 160.959 144.22 161.182 144.666C161.405 145.111 161.712 145.457 162.102 145.702C162.503 145.947 162.966 146.07 163.49 146.07ZM172.12 147.324V138.897H173.792V147.324H172.12ZM172.973 137.308C172.649 137.308 172.382 137.208 172.17 137.007C171.969 136.806 171.869 136.55 171.869 136.238C171.869 135.937 171.969 135.692 172.17 135.502C172.382 135.302 172.649 135.201 172.973 135.201C173.285 135.201 173.547 135.302 173.759 135.502C173.97 135.692 174.076 135.937 174.076 136.238C174.076 136.55 173.97 136.806 173.759 137.007C173.547 137.208 173.285 137.308 172.973 137.308ZM178.413 147.324V138.897H179.918L180.068 140.485C180.258 140.106 180.503 139.788 180.804 139.532C181.105 139.265 181.456 139.058 181.857 138.913C182.27 138.768 182.738 138.696 183.262 138.696V140.468H182.66C182.314 140.468 181.985 140.513 181.673 140.602C181.361 140.68 181.082 140.82 180.837 141.02C180.603 141.221 180.419 141.494 180.285 141.84C180.152 142.185 180.085 142.614 180.085 143.127V147.324H178.413ZM190.595 147.525C189.792 147.525 189.078 147.341 188.454 146.973C187.83 146.605 187.339 146.092 186.983 145.435C186.637 144.777 186.464 144.013 186.464 143.144C186.464 142.252 186.637 141.477 186.983 140.82C187.339 140.151 187.83 139.632 188.454 139.265C189.078 138.885 189.803 138.696 190.628 138.696C191.453 138.696 192.161 138.88 192.752 139.248C193.342 139.616 193.799 140.106 194.123 140.719C194.446 141.321 194.608 141.99 194.608 142.726C194.608 142.837 194.602 142.96 194.591 143.094C194.591 143.216 194.585 143.356 194.574 143.512H187.685V142.325H192.936C192.902 141.622 192.668 141.076 192.233 140.686C191.798 140.285 191.258 140.084 190.611 140.084C190.154 140.084 189.736 140.19 189.357 140.402C188.978 140.602 188.672 140.903 188.437 141.305C188.215 141.695 188.103 142.191 188.103 142.793V143.261C188.103 143.885 188.215 144.415 188.437 144.849C188.672 145.273 188.978 145.596 189.357 145.819C189.736 146.031 190.149 146.137 190.595 146.137C191.13 146.137 191.57 146.02 191.916 145.786C192.261 145.552 192.517 145.234 192.685 144.833H194.357C194.212 145.346 193.967 145.808 193.621 146.221C193.276 146.622 192.846 146.94 192.334 147.174C191.832 147.408 191.252 147.525 190.595 147.525ZM199.364 147.408C199.041 147.408 198.773 147.307 198.561 147.107C198.361 146.895 198.26 146.644 198.26 146.354C198.26 146.053 198.361 145.803 198.561 145.602C198.773 145.39 199.041 145.284 199.364 145.284C199.687 145.284 199.949 145.39 200.15 145.602C200.35 145.803 200.451 146.053 200.451 146.354C200.451 146.644 200.35 146.895 200.15 147.107C199.949 147.307 199.687 147.408 199.364 147.408Z" fill="white"/>
<defs>
<filter id="filter0_i_1021_24704" x="3.67224" y="81.9248" width="195.388" height="39.2097" filterUnits="userSpaceOnUse" color-interpolation-filters="sRGB">
<feFlood flood-opacity="0" result="BackgroundImageFix"/>
<feBlend mode="normal" in="SourceGraphic" in2="BackgroundImageFix" result="shape"/>
<feColorMatrix in="SourceAlpha" type="matrix" values="0 0 0 0 0 0 0 0 0 0 0 0 0 0 0 0 0 0 127 0" result="hardAlpha"/>
<feOffset dy="1.46946"/>
<feGaussianBlur stdDeviation="0.734728"/>
<feComposite in2="hardAlpha" operator="arithmetic" k2="-1" k3="1"/>
<feColorMatrix type="matrix" values="0 0 0 0 0 0 0 0 0 0 0 0 0 0 0 0 0 0 0.25 0"/>
<feBlend mode="normal" in2="shape" result="effect1_innerShadow_1021_24704"/>
</filter>
</defs>
</svg>
