<svg width="193" height="40" viewBox="0 0 193 40" fill="none" xmlns="http://www.w3.org/2000/svg">
<path fill-rule="evenodd" clip-rule="evenodd" d="M0 29.3654V13.6498H3.83677V29.3654H0ZM55.0975 17.2438H63.3767V0H59.54V13.407H53.7687L41.0141 23.5517L28.2598 13.407H22.4883V0H18.6516V17.2438H26.9307L41.0141 28.4455L55.0975 17.2438ZM59.5399 26.569H57.8983L41.014 40L24.1298 26.569H22.4882V39.976H18.6515V22.7322H25.4594L41.014 35.1055L56.5686 22.7322H63.3766V39.976H59.5399V26.569ZM72.7029 35.4722H68.8654V4.50305H72.7029V35.4722ZM82.0282 29.3654H78.1915V13.6498H82.0282V29.3654ZM9.32538 35.4722V4.50305H13.1621V35.4722H9.32538Z" fill="#94EB00"/>
<g filter="url(#filter0_i_1021_24810)">
<path d="M93.841 23.6494V5.54728H98.0045L103.539 16.8482L109.021 5.54728H113.184V23.6494H109.693V11.4951L104.909 21.1151H102.142L97.3321 11.4951V23.6494H93.841ZM122.048 23.9597C120.996 23.9597 120.091 23.7442 119.332 23.3132C118.591 22.865 118.022 22.2185 117.626 21.3737C117.229 20.5117 117.031 19.4514 117.031 18.1929V10.6159H120.522V17.8309C120.522 18.8825 120.738 19.6756 121.169 20.21C121.617 20.7445 122.298 21.0117 123.212 21.0117C123.798 21.0117 124.315 20.8824 124.763 20.6238C125.211 20.3479 125.565 19.96 125.823 19.4601C126.099 18.9429 126.237 18.3136 126.237 17.5723V10.6159H129.702V23.6494H126.651L126.366 21.5289C125.987 22.2702 125.427 22.865 124.686 23.3132C123.944 23.7442 123.065 23.9597 122.048 23.9597ZM137.13 23.6494L132.346 10.6159H136.018L139.25 20.3652L142.483 10.6159H146.129L141.371 23.6494H137.13ZM154.43 23.9597C153.12 23.9597 151.956 23.6839 150.939 23.1322C149.939 22.5633 149.155 21.7789 148.586 20.7789C148.034 19.7618 147.758 18.5894 147.758 17.2619C147.758 15.9 148.034 14.7018 148.586 13.6674C149.155 12.6157 149.939 11.7968 150.939 11.2107C151.939 10.6073 153.103 10.3056 154.43 10.3056C155.723 10.3056 156.852 10.59 157.818 11.1589C158.783 11.7279 159.533 12.4951 160.068 13.4605C160.602 14.4259 160.869 15.5207 160.869 16.7447C160.869 16.9171 160.869 17.1154 160.869 17.3395C160.869 17.5464 160.852 17.7619 160.817 17.986H150.241V15.8655H157.352C157.3 15.0207 156.999 14.357 156.447 13.8743C155.913 13.3915 155.24 13.1502 154.43 13.1502C153.844 13.1502 153.301 13.2881 152.801 13.5639C152.301 13.8225 151.904 14.2277 151.611 14.7794C151.335 15.3311 151.197 16.0293 151.197 16.874V17.624C151.197 18.3308 151.327 18.9515 151.585 19.4859C151.861 20.0031 152.241 20.4083 152.723 20.7014C153.206 20.9772 153.766 21.1151 154.404 21.1151C155.042 21.1151 155.568 20.9772 155.982 20.7014C156.413 20.4255 156.732 20.0721 156.938 19.6411H160.507C160.266 20.4514 159.861 21.1841 159.292 21.8392C158.723 22.4943 158.025 23.0115 157.197 23.3908C156.37 23.7701 155.447 23.9597 154.43 23.9597ZM164.246 23.6494V5.03007H167.737V23.6494H164.246ZM171.657 23.6494V5.03007H175.148V23.6494H171.657ZM185.223 23.9597C183.982 23.9597 182.862 23.6753 181.862 23.1063C180.879 22.5202 180.095 21.7185 179.508 20.7014C178.939 19.6669 178.655 18.486 178.655 17.1585C178.655 15.7965 178.939 14.607 179.508 13.5898C180.095 12.5554 180.888 11.7537 181.887 11.1848C182.887 10.5986 184.008 10.3056 185.249 10.3056C186.508 10.3056 187.628 10.5986 188.611 11.1848C189.611 11.7537 190.395 12.5554 190.964 13.5898C191.551 14.607 191.844 15.7879 191.844 17.1326C191.844 18.4774 191.551 19.6669 190.964 20.7014C190.395 21.7185 189.611 22.5202 188.611 23.1063C187.611 23.6753 186.482 23.9597 185.223 23.9597ZM185.223 20.9341C185.81 20.9341 186.327 20.7962 186.775 20.5203C187.241 20.2445 187.603 19.8221 187.861 19.2532C188.137 18.6843 188.275 17.9774 188.275 17.1326C188.275 16.2879 188.137 15.5897 187.861 15.038C187.603 14.469 187.241 14.0467 186.775 13.7708C186.327 13.4777 185.818 13.3312 185.249 13.3312C184.698 13.3312 184.189 13.4777 183.724 13.7708C183.258 14.0467 182.887 14.469 182.612 15.038C182.353 15.5897 182.224 16.2879 182.224 17.1326C182.224 17.9774 182.353 18.6843 182.612 19.2532C182.887 19.8221 183.249 20.2445 183.698 20.5203C184.163 20.7962 184.672 20.9341 185.223 20.9341Z" fill="white"/>
</g>
<path d="M94.046 36.7881V31.5577H92.2941V30.8638H96.6527V31.5577H94.8924V36.7881H94.046ZM98.1227 36.7881V32.5226H98.8844L98.9606 33.3266C99.0565 33.1347 99.1807 32.9739 99.333 32.8442C99.4853 32.7088 99.6631 32.6044 99.8662 32.531C100.075 32.4577 100.312 32.421 100.577 32.421V33.3181H100.272C100.098 33.3181 99.9311 33.3407 99.7731 33.3858C99.6151 33.4253 99.4741 33.4958 99.3499 33.5974C99.2314 33.699 99.1383 33.8372 99.0706 34.0121C99.0029 34.187 98.9691 34.4042 98.9691 34.6638V36.7881H98.1227ZM103.878 36.8896C103.528 36.8896 103.237 36.8304 103.006 36.7119C102.775 36.5934 102.602 36.4354 102.49 36.238C102.377 36.0348 102.32 35.8176 102.32 35.5863C102.32 35.3042 102.394 35.0644 102.54 34.8669C102.687 34.6638 102.896 34.5086 103.167 34.4014C103.437 34.2942 103.762 34.2406 104.14 34.2406H105.249C105.249 33.9924 105.212 33.7864 105.139 33.6228C105.065 33.4592 104.955 33.3379 104.809 33.2589C104.667 33.1742 104.487 33.1319 104.267 33.1319C104.013 33.1319 103.796 33.194 103.615 33.3181C103.435 33.4366 103.322 33.6143 103.277 33.8513H102.43C102.464 33.5523 102.566 33.2984 102.735 33.0896C102.91 32.8752 103.133 32.7116 103.404 32.5987C103.674 32.4802 103.962 32.421 104.267 32.421C104.667 32.421 105.003 32.4915 105.274 32.6326C105.545 32.7736 105.748 32.9739 105.883 33.2335C106.024 33.4874 106.095 33.7921 106.095 34.1475V36.7881H105.359L105.291 36.0687C105.229 36.1815 105.156 36.2887 105.071 36.3903C104.986 36.4919 104.885 36.5793 104.766 36.6527C104.653 36.726 104.521 36.7824 104.368 36.8219C104.222 36.8671 104.058 36.8896 103.878 36.8896ZM104.038 36.2041C104.219 36.2041 104.383 36.1674 104.529 36.0941C104.676 36.0207 104.8 35.922 104.902 35.7979C105.009 35.6681 105.088 35.5242 105.139 35.3662C105.195 35.2026 105.226 35.0362 105.232 34.8669V34.8415H104.225C103.982 34.8415 103.784 34.8726 103.632 34.9346C103.485 34.991 103.378 35.07 103.311 35.1716C103.243 35.2731 103.209 35.3916 103.209 35.527C103.209 35.6681 103.24 35.7894 103.302 35.891C103.37 35.9869 103.466 36.0631 103.59 36.1195C103.714 36.1759 103.863 36.2041 104.038 36.2041ZM108.344 36.7881V32.5226H109.191V36.7881H108.344ZM108.776 31.7185C108.612 31.7185 108.477 31.6678 108.37 31.5662C108.268 31.4646 108.217 31.3349 108.217 31.1769C108.217 31.0246 108.268 30.9004 108.37 30.8045C108.477 30.7029 108.612 30.6522 108.776 30.6522C108.934 30.6522 109.067 30.7029 109.174 30.8045C109.281 30.9004 109.335 31.0246 109.335 31.1769C109.335 31.3349 109.281 31.4646 109.174 31.5662C109.067 31.6678 108.934 31.7185 108.776 31.7185ZM111.511 36.7881V32.5226H112.272L112.323 33.2504C112.459 32.9965 112.65 32.7962 112.899 32.6495C113.147 32.4972 113.432 32.421 113.754 32.421C114.092 32.421 114.383 32.4887 114.625 32.6241C114.868 32.7595 115.057 32.9655 115.192 33.2419C115.328 33.5128 115.395 33.8541 115.395 34.266V36.7881H114.549V34.3506C114.549 33.9557 114.462 33.6567 114.287 33.4535C114.112 33.2504 113.858 33.1489 113.525 33.1489C113.305 33.1489 113.108 33.2025 112.933 33.3097C112.758 33.4112 112.617 33.5636 112.509 33.7667C112.408 33.9698 112.357 34.2181 112.357 34.5114V36.7881H111.511ZM117.926 36.8304C117.763 36.8304 117.627 36.7796 117.52 36.6781C117.419 36.5709 117.368 36.4439 117.368 36.2972C117.368 36.1449 117.419 36.0179 117.52 35.9164C117.627 35.8092 117.763 35.7556 117.926 35.7556C118.09 35.7556 118.223 35.8092 118.324 35.9164C118.426 36.0179 118.477 36.1449 118.477 36.2972C118.477 36.4439 118.426 36.5709 118.324 36.6781C118.223 36.7796 118.09 36.8304 117.926 36.8304ZM125.213 36.7881V31.5577H123.461V30.8638H127.82V31.5577H126.059V36.7881H125.213ZM129.29 36.7881V32.5226H130.052L130.128 33.3266C130.224 33.1347 130.348 32.9739 130.5 32.8442C130.652 32.7088 130.83 32.6044 131.033 32.531C131.242 32.4577 131.479 32.421 131.744 32.421V33.3181H131.44C131.265 33.3181 131.098 33.3407 130.94 33.3858C130.782 33.4253 130.641 33.4958 130.517 33.5974C130.399 33.699 130.305 33.8372 130.238 34.0121C130.17 34.187 130.136 34.4042 130.136 34.6638V36.7881H129.29ZM135.045 36.8896C134.695 36.8896 134.404 36.8304 134.173 36.7119C133.942 36.5934 133.77 36.4354 133.657 36.238C133.544 36.0348 133.487 35.8176 133.487 35.5863C133.487 35.3042 133.561 35.0644 133.707 34.8669C133.854 34.6638 134.063 34.5086 134.334 34.4014C134.605 34.2942 134.929 34.2406 135.307 34.2406H136.416C136.416 33.9924 136.379 33.7864 136.306 33.6228C136.232 33.4592 136.122 33.3379 135.976 33.2589C135.835 33.1742 135.654 33.1319 135.434 33.1319C135.18 33.1319 134.963 33.194 134.782 33.3181C134.602 33.4366 134.489 33.6143 134.444 33.8513H133.597C133.631 33.5523 133.733 33.2984 133.902 33.0896C134.077 32.8752 134.3 32.7116 134.571 32.5987C134.842 32.4802 135.129 32.421 135.434 32.421C135.835 32.421 136.17 32.4915 136.441 32.6326C136.712 32.7736 136.915 32.9739 137.05 33.2335C137.192 33.4874 137.262 33.7921 137.262 34.1475V36.7881H136.526L136.458 36.0687C136.396 36.1815 136.323 36.2887 136.238 36.3903C136.153 36.4919 136.052 36.5793 135.933 36.6527C135.82 36.726 135.688 36.7824 135.536 36.8219C135.389 36.8671 135.225 36.8896 135.045 36.8896ZM135.205 36.2041C135.386 36.2041 135.55 36.1674 135.696 36.0941C135.843 36.0207 135.967 35.922 136.069 35.7979C136.176 35.6681 136.255 35.5242 136.306 35.3662C136.362 35.2026 136.393 35.0362 136.399 34.8669V34.8415H135.392C135.149 34.8415 134.952 34.8726 134.799 34.9346C134.653 34.991 134.545 35.07 134.478 35.1716C134.41 35.2731 134.376 35.3916 134.376 35.527C134.376 35.6681 134.407 35.7894 134.469 35.891C134.537 35.9869 134.633 36.0631 134.757 36.1195C134.881 36.1759 135.031 36.2041 135.205 36.2041ZM141.424 36.8896C141.012 36.8896 140.645 36.7965 140.324 36.6104C140.002 36.4185 139.748 36.1562 139.562 35.8233C139.382 35.4904 139.291 35.1039 139.291 34.6638C139.291 34.2181 139.382 33.8287 139.562 33.4958C139.748 33.1573 140.002 32.895 140.324 32.7088C140.645 32.5169 141.012 32.421 141.424 32.421C141.943 32.421 142.378 32.5564 142.727 32.8272C143.077 33.0981 143.3 33.4648 143.396 33.9275H142.516C142.459 33.6792 142.33 33.4874 142.127 33.352C141.929 33.2166 141.692 33.1489 141.416 33.1489C141.19 33.1489 140.981 33.2081 140.789 33.3266C140.598 33.4394 140.442 33.6087 140.324 33.8344C140.211 34.0544 140.155 34.3281 140.155 34.6553C140.155 34.8979 140.188 35.1152 140.256 35.307C140.324 35.4932 140.414 35.6512 140.527 35.7809C140.645 35.9107 140.781 36.0095 140.933 36.0772C141.086 36.1392 141.246 36.1703 141.416 36.1703C141.602 36.1703 141.768 36.1421 141.915 36.0856C142.067 36.0236 142.194 35.9333 142.296 35.8148C142.403 35.6963 142.476 35.5553 142.516 35.3916H143.396C143.3 35.843 143.077 36.2069 142.727 36.4834C142.378 36.7542 141.943 36.8896 141.424 36.8896ZM148.179 36.7881L146.216 34.4522L147.993 32.5226H149.017L146.901 34.7823V34.1475L149.245 36.7881H148.179ZM145.496 36.7881V30.6945H146.343V36.7881H145.496ZM151.408 36.8304C151.244 36.8304 151.109 36.7796 151.001 36.6781C150.9 36.5709 150.849 36.4439 150.849 36.2972C150.849 36.1449 150.9 36.0179 151.001 35.9164C151.109 35.8092 151.244 35.7556 151.408 35.7556C151.571 35.7556 151.704 35.8092 151.805 35.9164C151.907 36.0179 151.958 36.1449 151.958 36.2972C151.958 36.4439 151.907 36.5709 151.805 36.6781C151.704 36.7796 151.571 36.8304 151.408 36.8304ZM157.315 36.7881V30.8638H158.161V36.7881H157.315ZM160.465 36.7881V32.5226H161.227L161.278 33.2504C161.413 32.9965 161.605 32.7962 161.853 32.6495C162.101 32.4972 162.386 32.421 162.708 32.421C163.046 32.421 163.337 32.4887 163.58 32.6241C163.822 32.7595 164.011 32.9655 164.147 33.2419C164.282 33.5128 164.35 33.8541 164.35 34.266V36.7881H163.504V34.3506C163.504 33.9557 163.416 33.6567 163.241 33.4535C163.066 33.2504 162.812 33.1489 162.479 33.1489C162.259 33.1489 162.062 33.2025 161.887 33.3097C161.712 33.4112 161.571 33.5636 161.464 33.7667C161.362 33.9698 161.311 34.2181 161.311 34.5114V36.7881H160.465ZM168.193 36.8896C167.832 36.8896 167.516 36.8304 167.245 36.7119C166.974 36.5934 166.759 36.427 166.602 36.2126C166.444 35.9982 166.348 35.7471 166.314 35.4593H167.177C167.205 35.5948 167.259 35.7189 167.338 35.8317C167.422 35.9446 167.535 36.0348 167.676 36.1026C167.823 36.1703 167.995 36.2041 168.193 36.2041C168.379 36.2041 168.531 36.1787 168.65 36.1279C168.774 36.0715 168.864 35.9982 168.92 35.9079C168.977 35.812 169.005 35.7104 169.005 35.6032C169.005 35.4452 168.966 35.3267 168.887 35.2478C168.813 35.1631 168.7 35.0982 168.548 35.0531C168.401 35.0023 168.224 34.9572 168.015 34.9177C167.817 34.8838 167.626 34.8387 167.439 34.7823C167.259 34.7202 167.095 34.644 166.949 34.5538C166.807 34.4635 166.695 34.3506 166.61 34.2152C166.525 34.0742 166.483 33.9021 166.483 33.699C166.483 33.4564 166.548 33.2391 166.678 33.0473C166.807 32.8498 166.991 32.6975 167.228 32.5903C167.47 32.4774 167.755 32.421 168.083 32.421C168.557 32.421 168.937 32.5338 169.225 32.7595C169.513 32.9852 169.682 33.304 169.733 33.7159H168.912C168.889 33.5241 168.805 33.3774 168.658 33.2758C168.511 33.1686 168.317 33.115 168.074 33.115C167.832 33.115 167.645 33.163 167.516 33.2589C167.386 33.3548 167.321 33.4817 167.321 33.6397C167.321 33.7413 167.358 33.8316 167.431 33.9106C167.504 33.9895 167.611 34.0572 167.753 34.1137C167.899 34.1645 168.077 34.2124 168.286 34.2575C168.585 34.314 168.853 34.3845 169.09 34.4691C169.327 34.5538 169.516 34.6779 169.657 34.8415C169.798 35.0051 169.868 35.2393 169.868 35.544C169.874 35.8092 169.806 36.0433 169.665 36.2464C169.53 36.4496 169.335 36.6075 169.081 36.7204C168.833 36.8332 168.537 36.8896 168.193 36.8896ZM171.975 38.65V32.5226H172.736L172.821 33.1827C172.911 33.0529 173.024 32.9316 173.16 32.8188C173.295 32.7003 173.456 32.6044 173.642 32.531C173.834 32.4577 174.057 32.421 174.311 32.421C174.717 32.421 175.072 32.5197 175.377 32.7172C175.687 32.9147 175.927 33.1827 176.096 33.5212C176.271 33.8541 176.359 34.235 176.359 34.6638C176.359 35.0926 176.271 35.4763 176.096 35.8148C175.921 36.1477 175.679 36.4101 175.368 36.6019C175.064 36.7937 174.708 36.8896 174.302 36.8896C173.969 36.8896 173.676 36.8248 173.422 36.695C173.168 36.5596 172.968 36.3734 172.821 36.1364V38.65H171.975ZM174.167 36.1533C174.426 36.1533 174.655 36.0913 174.852 35.9671C175.055 35.843 175.213 35.6681 175.326 35.4424C175.445 35.2167 175.504 34.9544 175.504 34.6553C175.504 34.3563 175.445 34.0967 175.326 33.8767C175.213 33.651 175.055 33.4761 174.852 33.352C174.655 33.2222 174.426 33.1573 174.167 33.1573C173.902 33.1573 173.667 33.2222 173.464 33.352C173.267 33.4761 173.112 33.651 172.999 33.8767C172.886 34.0967 172.829 34.3563 172.829 34.6553C172.829 34.9544 172.886 35.2167 172.999 35.4424C173.112 35.6681 173.267 35.843 173.464 35.9671C173.667 36.0913 173.902 36.1533 174.167 36.1533ZM178.516 36.7881V32.5226H179.362V36.7881H178.516ZM178.948 31.7185C178.784 31.7185 178.649 31.6678 178.541 31.5662C178.44 31.4646 178.389 31.3349 178.389 31.1769C178.389 31.0246 178.44 30.9004 178.541 30.8045C178.649 30.7029 178.784 30.6522 178.948 30.6522C179.106 30.6522 179.238 30.7029 179.345 30.8045C179.453 30.9004 179.506 31.0246 179.506 31.1769C179.506 31.3349 179.453 31.4646 179.345 31.5662C179.238 31.6678 179.106 31.7185 178.948 31.7185ZM181.682 36.7881V32.5226H182.444L182.52 33.3266C182.616 33.1347 182.74 32.9739 182.893 32.8442C183.045 32.7088 183.223 32.6044 183.426 32.531C183.635 32.4577 183.872 32.421 184.137 32.421V33.3181H183.832C183.657 33.3181 183.491 33.3407 183.333 33.3858C183.175 33.4253 183.034 33.4958 182.91 33.5974C182.791 33.699 182.698 33.8372 182.63 34.0121C182.563 34.187 182.529 34.4042 182.529 34.6638V36.7881H181.682ZM187.83 36.8896C187.423 36.8896 187.062 36.7965 186.746 36.6104C186.43 36.4242 186.182 36.1646 186.001 35.8317C185.827 35.4988 185.739 35.1123 185.739 34.6723C185.739 34.2209 185.827 33.8287 186.001 33.4958C186.182 33.1573 186.43 32.895 186.746 32.7088C187.062 32.5169 187.429 32.421 187.846 32.421C188.264 32.421 188.622 32.5141 188.921 32.7003C189.22 32.8865 189.452 33.1347 189.615 33.4451C189.779 33.7497 189.861 34.0883 189.861 34.4607C189.861 34.5171 189.858 34.5792 189.852 34.6469C189.852 34.7089 189.849 34.7795 189.844 34.8584H186.357V34.2575H189.014C188.998 33.9021 188.879 33.6256 188.659 33.4281C188.439 33.225 188.165 33.1235 187.838 33.1235C187.607 33.1235 187.395 33.1771 187.203 33.2843C187.011 33.3858 186.856 33.5382 186.738 33.7413C186.625 33.9388 186.569 34.1898 186.569 34.4945V34.7315C186.569 35.0475 186.625 35.3155 186.738 35.5355C186.856 35.7499 187.011 35.9135 187.203 36.0264C187.395 36.1336 187.604 36.1872 187.83 36.1872C188.1 36.1872 188.323 36.1279 188.498 36.0095C188.673 35.891 188.803 35.7302 188.887 35.527H189.734C189.66 35.7866 189.536 36.0207 189.361 36.2295C189.187 36.4326 188.969 36.5934 188.71 36.7119C188.456 36.8304 188.162 36.8896 187.83 36.8896ZM192.249 36.8304C192.086 36.8304 191.95 36.7796 191.843 36.6781C191.742 36.5709 191.691 36.4439 191.691 36.2972C191.691 36.1449 191.742 36.0179 191.843 35.9164C191.95 35.8092 192.086 35.7556 192.249 35.7556C192.413 35.7556 192.546 35.8092 192.647 35.9164C192.749 36.0179 192.8 36.1449 192.8 36.2972C192.8 36.4439 192.749 36.5709 192.647 36.6781C192.546 36.7796 192.413 36.8304 192.249 36.8304Z" fill="white"/>
<defs>
<filter id="filter0_i_1021_24810" x="93.8409" y="5.03027" width="98.0027" height="19.6612" filterUnits="userSpaceOnUse" color-interpolation-filters="sRGB">
<feFlood flood-opacity="0" result="BackgroundImageFix"/>
<feBlend mode="normal" in="SourceGraphic" in2="BackgroundImageFix" result="shape"/>
<feColorMatrix in="SourceAlpha" type="matrix" values="0 0 0 0 0 0 0 0 0 0 0 0 0 0 0 0 0 0 127 0" result="hardAlpha"/>
<feOffset dy="0.73149"/>
<feGaussianBlur stdDeviation="0.365745"/>
<feComposite in2="hardAlpha" operator="arithmetic" k2="-1" k3="1"/>
<feColorMatrix type="matrix" values="0 0 0 0 0 0 0 0 0 0 0 0 0 0 0 0 0 0 0.25 0"/>
<feBlend mode="normal" in2="shape" result="effect1_innerShadow_1021_24810"/>
</filter>
</defs>
</svg>
