<svg width="144" height="70" viewBox="0 0 144 70" fill="none" xmlns="http://www.w3.org/2000/svg">
<path fill-rule="evenodd" clip-rule="evenodd" d="M0.502197 51.3045V23.8476H7.20545V51.3045H0.502197ZM96.7634 30.1268H111.228V0H104.525V23.4235H94.4419L72.1582 41.1474L49.8751 23.4235H39.7916V0H33.0885V30.1268H47.5531L72.1582 49.6973L96.7634 30.1268ZM104.525 46.4188H101.657L72.1581 69.8843L42.6596 46.4188H39.7915V69.8423H33.0884V39.7156H44.9826L72.1581 61.333L99.3335 39.7156H111.228V69.8423H104.525V46.4188ZM127.522 61.9738H120.817V7.86732H127.522V61.9738ZM143.814 51.3045H137.111V23.8476H143.814V51.3045ZM16.7946 61.9738V7.86732H23.4978V61.9738H16.7946Z" fill="#94EB00"/>
</svg>
