<svg width="20" height="20" viewBox="0 0 20 20" fill="none" xmlns="http://www.w3.org/2000/svg">
<path d="M10.0007 9.99935C12.3018 9.99935 14.1673 8.13387 14.1673 5.83268C14.1673 3.5315 12.3018 1.66602 10.0007 1.66602C7.69946 1.66602 5.83398 3.5315 5.83398 5.83268C5.83398 8.13387 7.69946 9.99935 10.0007 9.99935Z" stroke="white" stroke-width="1.25" stroke-linecap="round" stroke-linejoin="round"/>
<path d="M2.8418 18.3333C2.8418 15.1083 6.05013 12.5 10.0001 12.5C10.8001 12.5 11.5751 12.6083 12.3001 12.8083" stroke="white" stroke-width="1.25" stroke-linecap="round" stroke-linejoin="round"/>
<path d="M18.3327 14.9993C18.3327 15.266 18.2994 15.5243 18.2327 15.7743C18.1577 16.1077 18.0244 16.4327 17.8494 16.716C17.2744 17.6827 16.216 18.3327 14.9993 18.3327C14.141 18.3327 13.366 18.0077 12.7827 17.4743C12.5327 17.2577 12.316 16.9993 12.1493 16.716C11.841 16.216 11.666 15.6243 11.666 14.9993C11.666 14.0993 12.0244 13.2744 12.6077 12.6744C13.216 12.0494 14.066 11.666 14.9993 11.666C15.9827 11.666 16.8743 12.091 17.4743 12.7744C18.0077 13.366 18.3327 14.1493 18.3327 14.9993Z" stroke="white" stroke-width="1.25" stroke-miterlimit="10" stroke-linecap="round" stroke-linejoin="round"/>
<path d="M15.8579 14.1152L14.0996 15.8736" stroke="white" stroke-width="1.25" stroke-miterlimit="10" stroke-linecap="round" stroke-linejoin="round"/>
<path d="M14.1152 14.1309L15.8819 15.8892" stroke="white" stroke-width="1.25" stroke-miterlimit="10" stroke-linecap="round" stroke-linejoin="round"/>
</svg>
