<svg width="20" height="20" viewBox="0 0 20 20" fill="none" xmlns="http://www.w3.org/2000/svg">
<path d="M9.99995 7.76699C10.9916 7.76699 11.8 6.95866 11.8 5.96699C11.8 4.97533 10.9916 4.16699 9.99995 4.16699C9.00828 4.16699 8.19995 4.97533 8.19995 5.96699C8.19995 6.95866 9.00828 7.76699 9.99995 7.76699Z" stroke="white" stroke-width="1.25" stroke-linecap="round" stroke-linejoin="round"/>
<path d="M5.6584 15.8334C6.65006 15.8334 7.4584 15.0251 7.4584 14.0334C7.4584 13.0417 6.65006 12.2334 5.6584 12.2334C4.66673 12.2334 3.8584 13.0417 3.8584 14.0334C3.8584 15.0251 4.6584 15.8334 5.6584 15.8334Z" stroke="white" stroke-width="1.25" stroke-linecap="round" stroke-linejoin="round"/>
<path d="M14.3417 15.8334C15.3334 15.8334 16.1417 15.0251 16.1417 14.0334C16.1417 13.0417 15.3334 12.2334 14.3417 12.2334C13.3501 12.2334 12.5417 13.0417 12.5417 14.0334C12.5417 15.0251 13.3501 15.8334 14.3417 15.8334Z" stroke="white" stroke-width="1.25" stroke-linecap="round" stroke-linejoin="round"/>
</svg>
