<svg width="20" height="20" viewBox="0 0 20 20" fill="none" xmlns="http://www.w3.org/2000/svg">
<path d="M18.3334 6.19206V11.1921C18.3334 12.4421 17.9167 13.4837 17.1834 14.2171C16.4584 14.9421 15.4167 15.3587 14.1667 15.3587V17.1337C14.1667 17.8004 13.4251 18.2004 12.8751 17.8338L9.16675 15.3587H7.40009C7.46675 15.1087 7.50008 14.8504 7.50008 14.5837C7.50008 13.7337 7.17508 12.9504 6.64175 12.3587C6.04175 11.6754 5.15008 11.2504 4.16675 11.2504C3.23341 11.2504 2.38342 11.6337 1.77509 12.2587C1.70009 11.9254 1.66675 11.5671 1.66675 11.1921V6.19206C1.66675 3.69206 3.33341 2.02539 5.83341 2.02539H14.1667C16.6667 2.02539 18.3334 3.69206 18.3334 6.19206Z" stroke="white" stroke-width="1.25" stroke-miterlimit="10" stroke-linecap="round" stroke-linejoin="round"/>
<path d="M7.49992 14.5833C7.49992 14.85 7.46659 15.1083 7.39992 15.3583C7.32492 15.6917 7.1916 16.0167 7.0166 16.3C6.4416 17.2667 5.38325 17.9167 4.16659 17.9167C3.30825 17.9167 2.53325 17.5916 1.94992 17.0583C1.69992 16.8416 1.48324 16.5833 1.31657 16.3C1.00824 15.8 0.833252 15.2083 0.833252 14.5833C0.833252 13.6833 1.19159 12.8584 1.77492 12.2584C2.38326 11.6334 3.23325 11.25 4.16659 11.25C5.14992 11.25 6.04159 11.675 6.64159 12.3583C7.17492 12.95 7.49992 13.7333 7.49992 14.5833Z" stroke="white" stroke-width="1.25" stroke-miterlimit="10" stroke-linecap="round" stroke-linejoin="round"/>
<path d="M5.05817 15.4497L3.2915 13.6914" stroke="white" stroke-width="1.25" stroke-miterlimit="10" stroke-linecap="round" stroke-linejoin="round"/>
<path d="M5.04181 13.7168L3.27515 15.4751" stroke="white" stroke-width="1.25" stroke-miterlimit="10" stroke-linecap="round" stroke-linejoin="round"/>
<path d="M7.08325 8.75H12.9166" stroke="white" stroke-width="1.25" stroke-miterlimit="10" stroke-linecap="round" stroke-linejoin="round"/>
</svg>
