<svg width="32" height="25" viewBox="0 0 32 25" fill="none" xmlns="http://www.w3.org/2000/svg">
<path d="M29.9065 24.3516H2.0737C0.930654 24.3516 0 23.4551 0 22.348V2.34904C0 1.24801 0.930654 0.351562 2.0737 0.351562H29.9002C31.0495 0.351562 31.9802 1.24801 31.9802 2.34904V22.348C31.9802 23.4551 31.0496 24.3516 29.9065 24.3516Z" fill="#FFC738"/>
<path d="M29.9067 0.351562H15.9902V24.3516H29.9066C31.0559 24.3516 31.9803 23.4551 31.9803 22.3541V2.34909C31.9804 1.24806 31.0497 0.351562 29.9067 0.351562Z" fill="#FFB42E"/>
<path d="M31.9802 12.7637V11.9395H20.8059V8.2995L23.6916 5.51984H31.9802C31.9802 5.23705 31.949 4.96028 31.8991 4.69558H23.5105C23.398 4.69558 23.2856 4.74372 23.2107 4.82192L20.2 7.71589H16.4211V0.351562H15.5654V7.70978H11.8302L8.8258 4.81581C8.74462 4.73761 8.63218 4.68947 8.51974 4.68947H0.0874226C0.0374443 4.96023 0.00624072 5.23695 0.00624072 5.51373H8.34484L11.1744 8.23923V11.9274H0V12.7516H11.1744V16.4397L8.34484 19.1833H0.00624072C0.00624072 19.4661 0.0374968 19.7428 0.0874226 20.0075H8.52598C8.63842 20.0075 8.75086 19.9594 8.83204 19.8812L11.8364 16.9872H15.5717V24.3454H16.4274V16.9873H20.2063L23.2169 19.8813C23.2918 19.9595 23.4043 20.0076 23.5167 20.0076H31.9053C31.9553 19.7369 31.9865 19.4602 31.9865 19.1834H23.6854L20.7997 16.4037V12.7637H31.9802ZM19.9502 16.1631H12.0301V8.53409H19.9439V16.1631H19.9502Z" fill="#C66D4E"/>
<path d="M31.9803 12.7637V11.9395H20.806V8.2995L23.6917 5.51984H31.9803C31.9803 5.23705 31.9491 4.96028 31.8992 4.69558H23.5106C23.3981 4.69558 23.2857 4.74372 23.2108 4.82192L20.2001 7.71589H16.4212V0.351562H15.9902V8.53404H19.9503V16.163H15.9902V24.3456H16.4212V16.9873H20.2001L23.2108 19.8813C23.2857 19.9595 23.3981 20.0076 23.5106 20.0076H31.8992C31.9491 19.7369 31.9803 19.4662 31.9803 19.1834H23.6855L20.7997 16.4037V12.7637H31.9803Z" fill="#AF5A35"/>
</svg>
