<svg width="20" height="20" viewBox="0 0 20 20" fill="none" xmlns="http://www.w3.org/2000/svg">
<path d="M18.3327 6.19206V11.1921C18.3327 12.4421 17.916 13.4837 17.1827 14.2171C16.4577 14.9421 15.416 15.3587 14.166 15.3587V17.1337C14.166 17.8004 13.4244 18.2004 12.8744 17.8338L9.16602 15.3587H7.39935C7.46602 15.1087 7.49935 14.8504 7.49935 14.5837C7.49935 13.7337 7.17435 12.9504 6.64102 12.3587C6.04102 11.6754 5.14935 11.2504 4.16602 11.2504C3.23268 11.2504 2.38269 11.6337 1.77435 12.2587C1.69935 11.9254 1.66602 11.5671 1.66602 11.1921V6.19206C1.66602 3.69206 3.33268 2.02539 5.83268 2.02539H14.166C16.666 2.02539 18.3327 3.69206 18.3327 6.19206Z" stroke="white" stroke-width="1.25" stroke-miterlimit="10" stroke-linecap="round" stroke-linejoin="round"/>
<path d="M7.50065 14.5833C7.50065 14.85 7.46732 15.1083 7.40065 15.3583C7.32565 15.6917 7.19233 16.0167 7.01733 16.3C6.44233 17.2667 5.38398 17.9167 4.16732 17.9167C3.30898 17.9167 2.53398 17.5916 1.95065 17.0583C1.70065 16.8416 1.48397 16.5833 1.31731 16.3C1.00897 15.8 0.833984 15.2083 0.833984 14.5833C0.833984 13.6833 1.19232 12.8584 1.77566 12.2584C2.38399 11.6334 3.23398 11.25 4.16732 11.25C5.15065 11.25 6.04232 11.675 6.64232 12.3583C7.17565 12.95 7.50065 13.7333 7.50065 14.5833Z" stroke="white" stroke-width="1.25" stroke-miterlimit="10" stroke-linecap="round" stroke-linejoin="round"/>
<path d="M5.05768 15.4497L3.29102 13.6914" stroke="white" stroke-width="1.25" stroke-miterlimit="10" stroke-linecap="round" stroke-linejoin="round"/>
<path d="M5.04205 13.7168L3.27539 15.4751" stroke="white" stroke-width="1.25" stroke-miterlimit="10" stroke-linecap="round" stroke-linejoin="round"/>
<path d="M7.08398 8.75H12.9173" stroke="white" stroke-width="1.25" stroke-miterlimit="10" stroke-linecap="round" stroke-linejoin="round"/>
</svg>
