<svg width="20" height="21" viewBox="0 0 20 21" fill="none" xmlns="http://www.w3.org/2000/svg">
<path d="M11.6498 4.84977C11.4665 4.84977 11.2831 4.76647 11.1665 4.61647L9.51649 2.55811C9.29982 2.29144 9.34149 1.89145 9.61649 1.68312C9.88315 1.46645 10.2748 1.50811 10.4915 1.78311L12.1415 3.84147C12.3582 4.10814 12.3165 4.50813 12.0415 4.71646C11.9248 4.79979 11.7832 4.84977 11.6498 4.84977Z" fill="white"/>
<path d="M9.9999 19.4593C5.5749 19.4593 1.96655 15.8593 1.96655 11.4259C1.96655 6.99259 5.56656 3.39258 9.9999 3.39258C10.5749 3.39258 11.1582 3.45925 11.7916 3.60925C12.1249 3.68425 12.3416 4.02594 12.2582 4.35927C12.1832 4.69261 11.8499 4.90927 11.5082 4.82594C10.9749 4.70094 10.4749 4.64258 9.9999 4.64258C6.25823 4.64258 3.21655 7.68426 3.21655 11.4259C3.21655 15.1676 6.25823 18.2093 9.9999 18.2093C13.7416 18.2093 16.7832 15.1676 16.7832 11.4259C16.7832 9.97592 16.3082 8.57594 15.4082 7.37594C15.1999 7.10094 15.2582 6.70928 15.5332 6.50095C15.8082 6.29261 16.1999 6.35092 16.4082 6.62592C17.4749 8.04258 18.0332 9.70092 18.0332 11.4259C18.0332 15.8593 14.4249 19.4593 9.9999 19.4593Z" fill="white"/>
<path d="M7.95007 14.3909C7.6084 14.3909 7.32507 14.1076 7.32507 13.7659V10.9409L7.16674 11.1159C6.9334 11.3742 6.54174 11.3909 6.2834 11.1659C6.02507 10.9326 6.00841 10.5409 6.23341 10.2826L7.48341 8.89092C7.65841 8.69925 7.9334 8.63258 8.17506 8.72424C8.41673 8.81591 8.57507 9.04925 8.57507 9.30759V13.7659C8.57507 14.1159 8.30007 14.3909 7.95007 14.3909Z" fill="white"/>
<path d="M11.6667 14.3919C10.4 14.3919 9.375 13.3669 9.375 12.1002V10.9753C9.375 9.70859 10.4 8.68359 11.6667 8.68359C12.9333 8.68359 13.9583 9.70859 13.9583 10.9753V12.1002C13.9583 13.3669 12.9333 14.3919 11.6667 14.3919ZM11.6667 9.94194C11.0917 9.94194 10.625 10.4086 10.625 10.9836V12.1086C10.625 12.6836 11.0917 13.1502 11.6667 13.1502C12.2417 13.1502 12.7083 12.6836 12.7083 12.1086V10.9836C12.7083 10.4086 12.2417 9.94194 11.6667 9.94194Z" fill="white"/>
</svg>
