<svg width="20" height="21" viewBox="0 0 20 21" fill="none" xmlns="http://www.w3.org/2000/svg">
<path d="M10.8417 2.93359L15.7584 5.11693C17.1751 5.74193 17.1751 6.77526 15.7584 7.40026L10.8417 9.58359C10.2834 9.83359 9.36672 9.83359 8.80839 9.58359L3.89172 7.40026C2.47506 6.77526 2.47506 5.74193 3.89172 5.11693L8.80839 2.93359C9.36672 2.68359 10.2834 2.68359 10.8417 2.93359Z" stroke="white" stroke-width="1.25" stroke-linecap="round" stroke-linejoin="round"/>
<path d="M2.5 9.66602C2.5 10.366 3.025 11.1743 3.66667 11.4577L9.325 13.9743C9.75833 14.166 10.25 14.166 10.675 13.9743L16.3333 11.4577C16.975 11.1743 17.5 10.366 17.5 9.66602" stroke="white" stroke-width="1.25" stroke-linecap="round" stroke-linejoin="round"/>
<path d="M2.5 13.834C2.5 14.609 2.95833 15.309 3.66667 15.6257L9.325 18.1423C9.75833 18.334 10.25 18.334 10.675 18.1423L16.3333 15.6257C17.0417 15.309 17.5 14.609 17.5 13.834" stroke="white" stroke-width="1.25" stroke-linecap="round" stroke-linejoin="round"/>
</svg>
