<svg width="20" height="20" viewBox="0 0 20 20" fill="none" xmlns="http://www.w3.org/2000/svg">
<path d="M7.70825 7.54199C9.19159 8.08366 10.8083 8.08366 12.2916 7.54199" stroke="white" stroke-width="1.25" stroke-linecap="round" stroke-linejoin="round"/>
<path d="M14.0166 1.66699H5.98327C4.20827 1.66699 2.7666 3.11699 2.7666 4.88366V16.6253C2.7666 18.1253 3.8416 18.7587 5.15827 18.0337L9.22493 15.7753C9.65827 15.5337 10.3583 15.5337 10.7833 15.7753L14.8499 18.0337C16.1666 18.767 17.2416 18.1337 17.2416 16.6253V4.88366C17.2333 3.11699 15.7916 1.66699 14.0166 1.66699Z" stroke="white" stroke-width="1.25" stroke-linecap="round" stroke-linejoin="round"/>
<path d="M14.0166 1.66699H5.98327C4.20827 1.66699 2.7666 3.11699 2.7666 4.88366V16.6253C2.7666 18.1253 3.8416 18.7587 5.15827 18.0337L9.22493 15.7753C9.65827 15.5337 10.3583 15.5337 10.7833 15.7753L14.8499 18.0337C16.1666 18.767 17.2416 18.1337 17.2416 16.6253V4.88366C17.2333 3.11699 15.7916 1.66699 14.0166 1.66699Z" stroke="white" stroke-width="1.25" stroke-linecap="round" stroke-linejoin="round"/>
</svg>
