<svg width="20" height="20" viewBox="0 0 20 20" fill="none" xmlns="http://www.w3.org/2000/svg">
<path d="M11.6497 4.34977C11.4664 4.34977 11.283 4.26647 11.1664 4.11647L9.51637 2.05811C9.2997 1.79144 9.34136 1.39145 9.61636 1.18312C9.88303 0.966449 10.2747 1.00811 10.4914 1.28311L12.1414 3.34147C12.358 3.60814 12.3164 4.00813 12.0414 4.21646C11.9247 4.29979 11.783 4.34977 11.6497 4.34977Z" fill="white"/>
<path d="M9.9999 18.9593C5.5749 18.9593 1.96655 15.3593 1.96655 10.9259C1.96655 6.49259 5.56656 2.89258 9.9999 2.89258C10.5749 2.89258 11.1582 2.95925 11.7916 3.10925C12.1249 3.18425 12.3416 3.52594 12.2582 3.85927C12.1832 4.19261 11.8499 4.40927 11.5082 4.32594C10.9749 4.20094 10.4749 4.14258 9.9999 4.14258C6.25823 4.14258 3.21655 7.18426 3.21655 10.9259C3.21655 14.6676 6.25823 17.7093 9.9999 17.7093C13.7416 17.7093 16.7832 14.6676 16.7832 10.9259C16.7832 9.47592 16.3082 8.07594 15.4082 6.87594C15.1999 6.60094 15.2582 6.20928 15.5332 6.00095C15.8082 5.79261 16.1999 5.85092 16.4082 6.12592C17.4749 7.54258 18.0332 9.20092 18.0332 10.9259C18.0332 15.3593 14.4249 18.9593 9.9999 18.9593Z" fill="white"/>
<path d="M7.94995 13.8909C7.60828 13.8909 7.32495 13.6076 7.32495 13.2659V10.4409L7.16661 10.6159C6.93328 10.8742 6.54162 10.8909 6.28328 10.6659C6.02495 10.4326 6.00828 10.0409 6.23328 9.78257L7.48328 8.39092C7.65828 8.19925 7.93327 8.13258 8.17494 8.22424C8.41661 8.31591 8.57495 8.54925 8.57495 8.80759V13.2659C8.57495 13.6159 8.29995 13.8909 7.94995 13.8909Z" fill="white"/>
<path d="M11.6667 13.8919C10.4 13.8919 9.375 12.8669 9.375 11.6002V10.4753C9.375 9.20859 10.4 8.18359 11.6667 8.18359C12.9333 8.18359 13.9583 9.20859 13.9583 10.4753V11.6002C13.9583 12.8669 12.9333 13.8919 11.6667 13.8919ZM11.6667 9.44194C11.0917 9.44194 10.625 9.9086 10.625 10.4836V11.6086C10.625 12.1836 11.0917 12.6502 11.6667 12.6502C12.2417 12.6502 12.7083 12.1836 12.7083 11.6086V10.4836C12.7083 9.9086 12.2417 9.44194 11.6667 9.44194Z" fill="white"/>
</svg>
