<svg width="20" height="20" viewBox="0 0 20 20" fill="none" xmlns="http://www.w3.org/2000/svg">
<path d="M9.99992 18.9583C5.63325 18.9583 2.08325 15.4083 2.08325 11.0417C2.08325 6.675 5.63325 3.125 9.99992 3.125C14.3666 3.125 17.9166 6.675 17.9166 11.0417C17.9166 11.3833 17.6333 11.6667 17.2916 11.6667C16.9499 11.6667 16.6666 11.3833 16.6666 11.0417C16.6666 7.36667 13.6749 4.375 9.99992 4.375C6.32492 4.375 3.33325 7.36667 3.33325 11.0417C3.33325 14.7167 6.32492 17.7083 9.99992 17.7083C10.3416 17.7083 10.6249 17.9917 10.6249 18.3333C10.6249 18.675 10.3416 18.9583 9.99992 18.9583Z" fill="white"/>
<path d="M10 11.4577C9.65833 11.4577 9.375 11.1743 9.375 10.8327V6.66602C9.375 6.32435 9.65833 6.04102 10 6.04102C10.3417 6.04102 10.625 6.32435 10.625 6.66602V10.8327C10.625 11.1743 10.3417 11.4577 10 11.4577Z" fill="white"/>
<path d="M12.5 2.29102H7.5C7.15833 2.29102 6.875 2.00768 6.875 1.66602C6.875 1.32435 7.15833 1.04102 7.5 1.04102H12.5C12.8417 1.04102 13.125 1.32435 13.125 1.66602C13.125 2.00768 12.8417 2.29102 12.5 2.29102Z" fill="white"/>
<path d="M15.8333 18.1243C15.4916 18.1243 15.2083 17.841 15.2083 17.4993V14.166C15.2083 13.8243 15.4916 13.541 15.8333 13.541C16.1749 13.541 16.4583 13.8243 16.4583 14.166V17.4993C16.4583 17.841 16.1749 18.1243 15.8333 18.1243Z" fill="white"/>
<path d="M13.3333 18.1243C12.9916 18.1243 12.7083 17.841 12.7083 17.4993V14.166C12.7083 13.8243 12.9916 13.541 13.3333 13.541C13.6749 13.541 13.9583 13.8243 13.9583 14.166V17.4993C13.9583 17.841 13.6749 18.1243 13.3333 18.1243Z" fill="white"/>
</svg>
