<svg width="20" height="20" viewBox="0 0 20 20" fill="none" xmlns="http://www.w3.org/2000/svg">
<path d="M15.9501 16.2507C17.4251 14.7507 18.3334 12.684 18.3334 10.4173C18.3334 5.81732 14.6001 2.08398 10.0001 2.08398C5.40008 2.08398 1.66675 5.81732 1.66675 10.4173C1.66675 12.684 2.56674 14.734 4.03341 16.2423" stroke="white" stroke-width="1.25" stroke-miterlimit="10" stroke-linecap="round" stroke-linejoin="round"/>
<path d="M10 17.9165C11.5556 17.9165 12.8167 16.6555 12.8167 15.0999C12.8167 13.5443 11.5556 12.2832 10 12.2832C8.44442 12.2832 7.18335 13.5443 7.18335 15.0999C7.18335 16.6555 8.44442 17.9165 10 17.9165Z" stroke="white" stroke-width="1.25" stroke-miterlimit="10" stroke-linecap="round" stroke-linejoin="round"/>
<path d="M12.7083 10H13.3333C14.0166 10 14.5833 9.44167 14.5833 8.75C14.5833 8.06667 14.0166 7.5 13.3333 7.5C12.6499 7.5 12.0833 8.05833 12.0833 8.75V9.375C12.0833 9.71667 12.3666 10 12.7083 10Z" stroke="white" stroke-width="1.25" stroke-miterlimit="10" stroke-linecap="round" stroke-linejoin="round"/>
</svg>
