<svg width="20" height="21" viewBox="0 0 20 21" fill="none" xmlns="http://www.w3.org/2000/svg">
<path d="M17.5 5.48307C14.725 5.20807 11.9333 5.06641 9.15 5.06641C7.5 5.06641 5.85 5.14974 4.2 5.31641L2.5 5.48307" stroke="#E7252C" stroke-width="1.5" stroke-linecap="round" stroke-linejoin="round"/>
<path d="M7.08337 4.64102L7.26671 3.54935C7.40004 2.75768 7.50004 2.16602 8.90837 2.16602H11.0917C12.5 2.16602 12.6084 2.79102 12.7334 3.55768L12.9167 4.64102" stroke="#E7252C" stroke-width="1.5" stroke-linecap="round" stroke-linejoin="round"/>
<path d="M15.7083 8.11719L15.1666 16.5089C15.075 17.8172 15 18.8339 12.675 18.8339H7.32496C4.99996 18.8339 4.92496 17.8172 4.83329 16.5089L4.29163 8.11719" stroke="#E7252C" stroke-width="1.5" stroke-linecap="round" stroke-linejoin="round"/>
<path d="M8.60828 14.25H11.3833" stroke="#E7252C" stroke-width="1.5" stroke-linecap="round" stroke-linejoin="round"/>
<path d="M7.91663 10.916H12.0833" stroke="#E7252C" stroke-width="1.5" stroke-linecap="round" stroke-linejoin="round"/>
</svg>
