<svg width="32" height="32" viewBox="0 0 32 32" fill="none" xmlns="http://www.w3.org/2000/svg">
<path d="M20.0001 30.3327H12.0001C4.76008 30.3327 1.66675 27.2393 1.66675 19.9993V11.9993C1.66675 4.75935 4.76008 1.66602 12.0001 1.66602H20.0001C27.2401 1.66602 30.3334 4.75935 30.3334 11.9993V19.9993C30.3334 20.3327 30.3334 20.666 30.3067 20.986C30.2667 21.4127 29.9734 21.7594 29.5601 21.866C29.1467 21.9727 28.7201 21.8127 28.4801 21.4527C28.4401 21.4127 28.3601 21.3194 28.3067 21.2527C27.3467 20.226 26.0401 19.666 24.6667 19.666C23.3067 19.666 22.0267 20.1994 21.0801 21.1727C20.1734 22.106 19.6667 23.346 19.6667 24.666C19.6667 25.5593 19.9201 26.4527 20.3867 27.2393C20.6267 27.6393 20.9201 28.0127 21.2534 28.306C21.3067 28.346 21.3467 28.386 21.3734 28.4127L21.4801 28.506C21.7867 28.7594 21.9334 29.1994 21.8134 29.586C21.6934 29.9727 21.3734 30.266 20.9734 30.306C20.6801 30.3327 20.3334 30.3327 20.0001 30.3327ZM12.0001 3.66602C5.85341 3.66602 3.66675 5.85268 3.66675 11.9993V19.9993C3.66675 26.146 5.85341 28.3327 12.0001 28.3327H18.7067C18.6934 28.306 18.6801 28.2927 18.6667 28.266C18.0134 27.1727 17.6534 25.9193 17.6534 24.666C17.6534 22.826 18.3601 21.0927 19.6267 19.7861C20.9334 18.4394 22.7734 17.666 24.6534 17.666C25.9601 17.666 27.2401 18.0261 28.3201 18.7061V11.9993C28.3201 5.85268 26.1334 3.66602 19.9868 3.66602H12.0001Z" fill="#007AFF"/>
<path d="M28.6401 10.4805H3.36011C2.81344 10.4805 2.36011 10.0271 2.36011 9.48047C2.36011 8.9338 2.81344 8.48047 3.36011 8.48047H28.6401C29.1868 8.48047 29.6401 8.9338 29.6401 9.48047C29.6401 10.0271 29.2001 10.4805 28.6401 10.4805Z" fill="#007AFF"/>
<path d="M11.3601 10.2925C10.8134 10.2925 10.3601 9.83915 10.3601 9.29248V2.8125C10.3601 2.26583 10.8134 1.8125 11.3601 1.8125C11.9068 1.8125 12.3601 2.26583 12.3601 2.8125V9.29248C12.3601 9.83915 11.9068 10.2925 11.3601 10.2925Z" fill="#007AFF"/>
<path d="M20.6399 9.69254C20.0932 9.69254 19.6399 9.23921 19.6399 8.69254V2.8125C19.6399 2.26583 20.0932 1.8125 20.6399 1.8125C21.1866 1.8125 21.6399 2.26583 21.6399 2.8125V8.69254C21.6399 9.25254 21.1999 9.69254 20.6399 9.69254Z" fill="#007AFF"/>
<path d="M24.6664 31.666C23.093 31.666 21.5597 31.1327 20.3597 30.146C20.3197 30.1193 20.2797 30.0927 20.253 30.066C20.1597 29.986 20.093 29.9326 20.0397 29.8793C20.013 29.866 19.9997 29.8527 19.9864 29.826C19.493 29.386 19.0397 28.8527 18.693 28.266C18.0397 27.1727 17.6797 25.9193 17.6797 24.666C17.6797 22.826 18.3864 21.0927 19.653 19.7861C20.9597 18.4394 22.7997 17.666 24.6797 17.666C26.653 17.666 28.533 18.4927 29.8397 19.946C29.853 19.9594 29.8797 19.986 29.893 20.0127C29.9864 20.106 30.0797 20.226 30.1464 20.3327C31.1064 21.4927 31.6797 23.0527 31.6797 24.666C31.6797 25.2527 31.613 25.7993 31.4797 26.3193C31.3197 26.986 31.053 27.6394 30.6797 28.266C29.3997 30.3727 27.1064 31.666 24.6664 31.666ZM21.453 28.466C21.493 28.4927 21.5197 28.506 21.5464 28.5327C22.4264 29.266 23.493 29.6527 24.6664 29.6527C26.413 29.6527 28.0397 28.7193 28.9464 27.226C29.213 26.786 29.3997 26.306 29.5197 25.8127C29.613 25.4393 29.6664 25.066 29.6664 24.6527C29.6664 23.506 29.2664 22.3994 28.533 21.5194L28.413 21.3594C28.373 21.3194 28.333 21.2793 28.3064 21.226C27.3464 20.2127 26.0397 19.6527 24.6664 19.6527C23.3064 19.6527 22.0264 20.186 21.0797 21.1593C20.173 22.0927 19.6664 23.3327 19.6664 24.6527C19.6664 25.546 19.9197 26.4393 20.3864 27.226C20.6264 27.626 20.9197 27.9993 21.253 28.2926C21.3064 28.3326 21.3464 28.3727 21.373 28.3993L21.453 28.466Z" fill="#007AFF"/>
<path d="M26.9065 25.6406H22.4265C21.8798 25.6406 21.4265 25.1873 21.4265 24.6406C21.4265 24.094 21.8798 23.6406 22.4265 23.6406H26.9065C27.4532 23.6406 27.9065 24.094 27.9065 24.6406C27.9065 25.1873 27.4665 25.6406 26.9065 25.6406Z" fill="#007AFF"/>
<path d="M24.6667 27.9331C24.1201 27.9331 23.6667 27.4798 23.6667 26.9331V22.4531C23.6667 21.9065 24.1201 21.4531 24.6667 21.4531C25.2134 21.4531 25.6667 21.9065 25.6667 22.4531V26.9331C25.6667 27.4931 25.2134 27.9331 24.6667 27.9331Z" fill="#007AFF"/>
</svg>
