<svg width="20" height="20" viewBox="0 0 20 20" fill="none" xmlns="http://www.w3.org/2000/svg">
<path d="M17.5665 7.15035V12.8503C17.5665 13.7837 17.0665 14.6504 16.2581 15.1254L11.3081 17.9837C10.4998 18.4504 9.4998 18.4504 8.68314 17.9837L3.73314 15.1254C2.9248 14.6587 2.4248 13.792 2.4248 12.8503V7.15035C2.4248 6.21702 2.9248 5.35032 3.73314 4.87532L8.68314 2.01699C9.49147 1.55033 10.4915 1.55033 11.3081 2.01699L16.2581 4.87532C17.0665 5.35032 17.5665 6.20869 17.5665 7.15035Z" stroke="white" stroke-width="1.25" stroke-linecap="round" stroke-linejoin="round"/>
<path d="M10 9.16651C11.0724 9.16651 11.9417 8.29719 11.9417 7.22483C11.9417 6.15248 11.0724 5.2832 10 5.2832C8.92766 5.2832 8.05835 6.15248 8.05835 7.22483C8.05835 8.29719 8.92766 9.16651 10 9.16651Z" stroke="white" stroke-width="1.25" stroke-linecap="round" stroke-linejoin="round"/>
<path d="M13.3334 13.8826C13.3334 12.3826 11.8417 11.166 10.0001 11.166C8.15841 11.166 6.66675 12.3826 6.66675 13.8826" stroke="white" stroke-width="1.25" stroke-linecap="round" stroke-linejoin="round"/>
</svg>
