<svg width="17" height="25" viewBox="0 0 17 25" fill="none" xmlns="http://www.w3.org/2000/svg">
<path d="M10.288 24.1456C10.003 23.871 10.003 23.4258 10.288 23.1512C16.4702 17.1963 16.4702 7.50682 10.288 1.55187C10.003 1.27727 10.003 0.832102 10.288 0.557508C10.5731 0.282914 11.0353 0.282914 11.3203 0.557508C12.973 2.14948 14.2528 4.00601 15.124 6.07549C15.9654 8.07401 16.392 10.1856 16.392 12.3516C16.392 14.5175 15.9654 16.6291 15.124 18.6277C14.2528 20.6972 12.973 22.5537 11.3203 24.1457C11.0353 24.4202 10.5731 24.4202 10.288 24.1456Z" fill="white"/>
<path d="M7.16009 21.1323C6.87502 20.8577 6.87502 20.4125 7.16009 20.1379C11.6178 15.8441 11.6178 8.85743 7.16009 4.56359C6.87502 4.28899 6.87502 3.84382 7.16009 3.56923C7.44517 3.29463 7.90733 3.29463 8.1924 3.56923C10.6275 5.91485 11.9686 9.03354 11.9687 12.3508C11.9687 15.668 10.6275 18.7867 8.1924 21.1324C7.90733 21.4069 7.44517 21.4069 7.16009 21.1323Z" fill="white"/>
<path d="M4.03216 18.121C3.74709 17.8464 3.74709 17.4012 4.03216 17.1266C6.76541 14.4939 6.76541 10.21 4.03216 7.57726C3.74709 7.30266 3.74709 6.85749 4.03216 6.5829C4.31724 6.3083 4.7794 6.3083 5.06447 6.5829C8.36694 9.76398 8.36694 14.9399 5.06447 18.121C4.77944 18.3956 4.31724 18.3956 4.03216 18.121Z" fill="white"/>
<path d="M0.905211 15.1077C0.620138 14.8331 0.620138 14.388 0.905211 14.1134C1.91396 13.1417 1.91396 11.5606 0.905211 10.589C0.620138 10.3144 0.620138 9.86921 0.905211 9.59462C1.19028 9.32002 1.65244 9.32002 1.93752 9.59462C3.51549 11.1146 3.51549 13.5878 1.93752 15.1077C1.65249 15.3823 1.19028 15.3823 0.905211 15.1077Z" fill="white"/>
</svg>
