<svg width="32" height="32" viewBox="0 0 32 32" fill="none" xmlns="http://www.w3.org/2000/svg">
<path d="M16.4935 11.8398H23.4935" stroke="url(#paint0_linear_2514_12816)" stroke-width="2" stroke-linecap="round" stroke-linejoin="round"/>
<path d="M8.5065 11.8398L9.5065 12.8398L12.5065 9.83984" stroke="url(#paint1_linear_2514_12816)" stroke-width="2" stroke-linecap="round" stroke-linejoin="round"/>
<path d="M16.4935 21.1729H23.4935" stroke="url(#paint2_linear_2514_12816)" stroke-width="2" stroke-linecap="round" stroke-linejoin="round"/>
<path d="M8.5065 21.1729L9.5065 22.1729L12.5065 19.1729" stroke="url(#paint3_linear_2514_12816)" stroke-width="2" stroke-linecap="round" stroke-linejoin="round"/>
<path d="M12 29.3337H20C26.6667 29.3337 29.3333 26.667 29.3333 20.0003V12.0003C29.3333 5.33366 26.6667 2.66699 20 2.66699H12C5.33332 2.66699 2.66666 5.33366 2.66666 12.0003V20.0003C2.66666 26.667 5.33332 29.3337 12 29.3337Z" stroke="url(#paint4_linear_2514_12816)" stroke-width="2" stroke-linecap="round" stroke-linejoin="round"/>
<defs>
<linearGradient id="paint0_linear_2514_12816" x1="19.9935" y1="11.8398" x2="19.9935" y2="12.8398" gradientUnits="userSpaceOnUse">
<stop stop-color="#94EB00"/>
<stop offset="1" stop-color="#548500"/>
</linearGradient>
<linearGradient id="paint1_linear_2514_12816" x1="10.5065" y1="9.83984" x2="10.5065" y2="12.8398" gradientUnits="userSpaceOnUse">
<stop stop-color="#94EB00"/>
<stop offset="1" stop-color="#548500"/>
</linearGradient>
<linearGradient id="paint2_linear_2514_12816" x1="19.9935" y1="21.1729" x2="19.9935" y2="22.1729" gradientUnits="userSpaceOnUse">
<stop stop-color="#94EB00"/>
<stop offset="1" stop-color="#548500"/>
</linearGradient>
<linearGradient id="paint3_linear_2514_12816" x1="10.5065" y1="19.1729" x2="10.5065" y2="22.1729" gradientUnits="userSpaceOnUse">
<stop stop-color="#94EB00"/>
<stop offset="1" stop-color="#548500"/>
</linearGradient>
<linearGradient id="paint4_linear_2514_12816" x1="16" y1="2.66699" x2="16" y2="29.3337" gradientUnits="userSpaceOnUse">
<stop stop-color="#94EB00"/>
<stop offset="1" stop-color="#548500"/>
</linearGradient>
</defs>
</svg>
